<?xml version="1.0" standalone="no"?>
<!DOCTYPE svg PUBLIC "-//W3C//DTD SVG 1.1//EN" "http://www.w3.org/Graphics/SVG/1.1/DTD/svg11.dtd" >
<svg xmlns="http://www.w3.org/2000/svg">
<metadata></metadata>
<defs>
<font id="sunstroke_headlineregular" horiz-adv-x="1519" >
<font-face units-per-em="2048" ascent="1638" descent="-410" />
<missing-glyph horiz-adv-x="409" />
<glyph horiz-adv-x="0" />
<glyph unicode="&#xd;" horiz-adv-x="409" />
<glyph horiz-adv-x="0" />
<glyph horiz-adv-x="0" />
<glyph unicode=" "  horiz-adv-x="409" />
<glyph unicode="&#x09;" horiz-adv-x="409" />
<glyph unicode="&#xa0;" horiz-adv-x="409" />
<glyph unicode="!" horiz-adv-x="452" d="M61 150q0 68 48.5 115.5t115.5 47.5q70 0 118 -48t48 -115q0 -70 -48 -118t-118 -48q-68 0 -116 48t-48 118zM70 600v610q0 66 45 111t110 45q66 0 111 -45t45 -111v-610q0 -66 -45 -111t-111 -45t-110.5 45.5t-44.5 110.5z" />
<glyph unicode="&#x22;" horiz-adv-x="663" d="M92 950v318q0 39 27.5 66.5t66.5 27.5t67 -27.5t28 -66.5v-318q0 -39 -28 -66.5t-67 -27.5t-66.5 27.5t-27.5 66.5zM383 950v318q0 39 27.5 66.5t66.5 27.5t66.5 -27.5t27.5 -66.5v-318q0 -39 -27.5 -66.5t-66.5 -27.5t-66.5 27.5t-27.5 66.5z" />
<glyph unicode="#" horiz-adv-x="1400" d="M20 403q0 55 39 95.5t95 40.5h127l84 270h-39q-55 0 -96.5 39t-41.5 94q0 57 39 96t97 39h129l61 197q14 43 49 69.5t78 26.5q59 0 97 -42t38 -93q0 -20 -6 -39l-35 -119h183l63 197q14 43 49 69.5t80 26.5q59 0 96 -41t37 -94q0 -20 -6 -39l-37 -119h43q55 0 96 -39 t41 -94t-38.5 -95t-96.5 -40h-131l-86 -270h45q53 0 94 -39t41 -97q0 -55 -39 -95t-94 -40h-133l-61 -194q-14 -43 -50 -68.5t-79 -25.5q-59 0 -97.5 40.5t-38.5 94.5q0 20 7 39l36 114h-182l-61 -194q-14 -43 -50 -68.5t-79 -25.5q-59 0 -97 40.5t-38 94.5q0 20 6 39 l37 114h-39q-53 0 -94.5 39t-41.5 96zM561 539h184l86 270h-184z" />
<glyph unicode="$" horiz-adv-x="997" d="M51 934q0 80 30 142.5t79 109.5t110.5 76.5t124.5 44.5v39q0 43 29 73.5t72 30.5t73.5 -30.5t30.5 -73.5v-41q35 -8 81 -26.5t87 -45.5t69.5 -61.5t28.5 -77.5q0 -57 -29.5 -96.5t-88.5 -39.5q-33 0 -57.5 15.5t-50.5 33t-60.5 33t-90.5 15.5q-68 0 -101.5 -27t-33.5 -74 q0 -18 13.5 -36.5t47.5 -38t88 -44t138 -55.5q88 -35 146.5 -74.5t94.5 -86t50 -96.5t14 -103q0 -66 -19.5 -130.5t-61.5 -118.5t-106.5 -94t-154.5 -54v-54q0 -43 -29.5 -72.5t-72.5 -29.5t-73 29.5t-30 72.5v54q-43 6 -101 23t-111.5 45t-91.5 67t-38 92q0 59 35 102 t88 43q41 0 72 -17.5t63.5 -39t73.5 -38.5t103 -17q78 0 111.5 33.5t33.5 74.5q0 20 -13.5 40t-44 40.5t-83 45t-127.5 56.5q-68 29 -125.5 63t-100.5 77t-67.5 97t-24.5 124z" />
<glyph unicode="%" horiz-adv-x="2088" d="M72 952q0 94 31.5 172t87 133.5t129 85t157.5 29.5q82 0 157 -29.5t130 -85t88 -133t33 -172.5q0 -94 -33 -170.5t-88 -132t-130 -85t-157 -29.5q-84 0 -157.5 29.5t-129 85t-87 132t-31.5 170.5zM313 952q0 -98 48.5 -147t115.5 -49q66 0 115 49t49 147t-49 147.5 t-115 49.5q-68 0 -116 -49.5t-48 -147.5zM713 80q0 16 6 35l432 1175q14 37 44 58.5t65 21.5q49 0 81.5 -33.5t32.5 -76.5q0 -20 -6 -35l-434 -1178q-12 -35 -43 -56.5t-66 -21.5q-47 0 -79.5 34t-32.5 77zM1204 387q0 94 32 172t87 133.5t129 85t158 29.5q82 0 156.5 -29.5 t130 -85t88 -133.5t32.5 -172t-32.5 -171t-88 -132t-130 -85t-156.5 -30q-84 0 -158 30t-129 85t-87 132t-32 171zM1446 387q0 -98 48 -147.5t116 -49.5q66 0 115 49.5t49 147.5t-49.5 147.5t-114.5 49.5q-68 0 -116 -49.5t-48 -147.5z" />
<glyph unicode="&#x26;" horiz-adv-x="1290" d="M61 367q0 76 26 133t63.5 102t80.5 78t80 57q-72 72 -99.5 145.5t-27.5 145.5q0 74 29 137.5t79 109.5t118.5 72.5t146.5 26.5t142.5 -25.5t111.5 -70.5t72.5 -105.5t25.5 -128.5t-20.5 -117.5t-50 -87.5t-61.5 -63.5t-54 -40.5l149 -151l56 110q16 35 50 54.5t71 19.5 q61 0 99 -43t38 -96q0 -35 -15 -64l-98 -180l141 -141q45 -49 43 -107q0 -59 -40.5 -100t-100.5 -41q-61 0 -104 43l-105 106q-12 -23 -39.5 -52.5t-71.5 -56t-106.5 -44t-144.5 -17.5q-113 0 -202 31t-151.5 83t-96.5 124t-34 154zM393 397q0 -66 47 -99.5t115 -33.5 q66 0 101.5 24.5t52.5 51.5l-213 215q-33 -27 -68 -63.5t-35 -94.5zM477 1042q0 -47 26.5 -83.5t49.5 -61.5q29 29 56.5 64.5t27.5 85.5q0 35 -20.5 59t-57.5 24h-2q-29 0 -54.5 -21.5t-25.5 -66.5z" />
<glyph unicode="'" horiz-adv-x="372" d="M92 950v318q0 39 27.5 66.5t66.5 27.5t67 -27.5t28 -66.5v-318q0 -39 -28 -66.5t-67 -27.5t-66.5 27.5t-27.5 66.5z" />
<glyph unicode="(" horiz-adv-x="526" d="M72 510q0 201 22.5 395.5t85.5 368.5q23 55 63 81.5t89 26.5q80 0 124 -57t23 -143q-12 -49 -24.5 -120t-23.5 -157t-18 -186.5t-7 -208.5q0 -109 7 -209t18 -186t23.5 -157t24.5 -120q20 -84 -23.5 -141t-123.5 -57q-49 0 -89 25.5t-63 82.5q-63 174 -85.5 368.5 t-22.5 393.5z" />
<glyph unicode=")" horiz-adv-x="526" d="M47 -162q12 49 24.5 120t23.5 157t18.5 186t7.5 209t-7.5 209t-18.5 186t-23.5 157t-24.5 120q-20 86 24 143t124 57q49 0 89 -26.5t62 -81.5q66 -172 87.5 -367.5t21.5 -396.5q0 -199 -21.5 -394.5t-87.5 -367.5q-23 -57 -62.5 -82.5t-88.5 -25.5q-80 0 -124 57t-24 141 z" />
<glyph unicode="*" horiz-adv-x="768" d="M72 881q0 53 47 82l88 43l-88 45q-23 12 -35 35.5t-12 46.5q0 41 28.5 67.5t65.5 26.5q25 0 47 -13l82 -55l-6 101q0 39 27.5 66.5t66.5 27.5q41 0 67.5 -28t26.5 -66l-6 -101l84 55q20 12 47 13q35 0 64.5 -25.5t29.5 -68.5q0 -23 -12 -47.5t-35 -34.5l-90 -45l90 -43 q47 -29 47 -82q0 -43 -29.5 -69t-64.5 -26q-27 0 -47 13l-84 55l6 -100q0 -39 -26.5 -67t-67.5 -28q-39 0 -66.5 28t-27.5 67l6 100l-82 -55q-23 -12 -47 -13q-37 0 -65.5 27t-28.5 68z" />
<glyph unicode="+" horiz-adv-x="923" d="M72 500q0 47 33.5 80.5t80.5 33.5h160v162q0 47 34 81t81 34t80.5 -34t33.5 -81v-162h164q47 0 80 -33.5t33 -80.5t-34 -81t-81 -34h-162v-164q0 -47 -33.5 -79.5t-80.5 -32.5t-81 33.5t-34 80.5v162h-160q-47 0 -80.5 34t-33.5 81z" />
<glyph unicode="," horiz-adv-x="501" d="M82 143q0 68 48 117t116 49q78 0 126 -55t48 -160q0 -61 -27.5 -109t-69.5 -82t-90.5 -51.5t-91.5 -17.5q-16 0 -27.5 9.5t-11.5 27.5q0 16 18.5 30.5t39.5 28.5q14 10 25.5 19.5t11.5 19.5q0 12 -18.5 22.5t-40 27t-39 46t-17.5 78.5z" />
<glyph unicode="-" horiz-adv-x="686" d="M61 500q0 47 34 80.5t81 33.5h336q47 0 80 -33.5t33 -80.5t-34 -81t-81 -34h-334q-47 0 -81 34t-34 81z" />
<glyph unicode="." horiz-adv-x="489" d="M82 147q0 68 47 115t115 47t116 -47t48 -115t-48.5 -114.5t-115.5 -46.5q-68 0 -115 46.5t-47 114.5z" />
<glyph unicode="/" horiz-adv-x="700" d="M20 127q0 23 7 45l340 1090q16 53 59 82.5t96 29.5q35 0 64.5 -14t50 -37t32 -51.5t11.5 -59.5q0 -25 -6 -45l-340 -1089q-16 -53 -59.5 -83t-96.5 -30q-72 0 -115 50.5t-43 111.5z" />
<glyph unicode="0" horiz-adv-x="1169" d="M82 487v375q0 145 52 243.5t129 158t166 84t161 24.5q63 0 149 -23.5t164 -82t131 -156.5t53 -248v-375q0 -141 -48 -238t-121.5 -157.5t-160.5 -88.5t-167 -28q-74 0 -163 27t-166 87.5t-128 157.5t-51 240zM426 477q0 -31 6 -65.5t22.5 -64.5t48.5 -50.5t81 -20.5 q59 0 92 26t48 59.5t17 67.5t2 48v393q0 16 -2 49t-17 67t-48 59.5t-92 25.5q-51 0 -82 -21.5t-48.5 -52t-22.5 -65.5t-5 -62v-393z" />
<glyph unicode="1" horiz-adv-x="731" d="M20 1001q0 35 15.5 66t44.5 53l276 205q45 33 101 33q72 0 122 -50.5t50 -121.5v-1024q0 -72 -50.5 -122t-121.5 -50q-72 0 -122 50t-50 122v735l-56 -31q-16 -10 -32.5 -13t-24.5 -3q-59 0 -105.5 43t-46.5 108z" />
<glyph unicode="2" horiz-adv-x="1064" d="M31 145q0 63 41 101l432 420q35 33 61.5 61.5t44 57t25.5 61.5t8 74q0 82 -41 116.5t-102 34.5t-100.5 -18.5t-70 -40t-62 -39t-81.5 -17.5q-53 0 -90 39t-37 99q0 49 32 99t91.5 90t147.5 64.5t198 24.5q113 0 196 -34.5t136 -92t80 -132.5t27 -157q0 -123 -53.5 -235.5 t-178.5 -235.5l-200 -194h333q59 0 102.5 -43t43.5 -103q0 -61 -43 -103t-103 -42h-692q-59 0 -102 43t-43 102z" />
<glyph unicode="3" horiz-adv-x="987" d="M31 209q0 72 41 111.5t106 39.5q41 0 66.5 -13t52.5 -30q29 -16 62.5 -31.5t91.5 -15.5q61 0 104 42t43 118q0 72 -56.5 104.5t-154.5 32.5q-53 0 -89 36t-36 89t34 89t87 38q66 2 102.5 42t36.5 93q0 59 -29.5 89t-72.5 30q-47 0 -74 -14.5t-51 -30.5q-20 -12 -43 -21.5 t-57 -9.5q-61 0 -101.5 41t-40.5 101q0 55 36 99t92.5 73.5t126 46t136.5 16.5q98 0 172 -30.5t124.5 -82t75 -118t24.5 -135.5q0 -92 -46 -172t-132 -111q51 -18 98 -48t80.5 -71t54 -93t20.5 -114q0 -88 -35.5 -166.5t-98 -137t-149.5 -92.5t-190 -34q-66 0 -138.5 15.5 t-132.5 45t-100 75t-40 104.5z" />
<glyph unicode="4" horiz-adv-x="1165" d="M31 403q0 55 32 101l590 794q23 33 59 51.5t76 18.5q70 0 118 -48t48 -118v-688h52q57 0 98 -40t41 -97t-41 -98t-98 -41h-52v-80q0 -70 -48 -117t-115 -47q-70 0 -118 47t-48 117v80h-430q-70 0 -117 48t-47 117zM389 506h258v360z" />
<glyph unicode="5" horiz-adv-x="1089" d="M72 221q0 66 33.5 108t99.5 42q39 0 72.5 -15.5t66.5 -34t67.5 -34t75.5 -15.5q37 0 71 15.5t59.5 41t41 59.5t15.5 71q0 33 -12.5 64.5t-35 56t-57 40t-80.5 15.5q-41 0 -71.5 -19.5t-59 -44t-59.5 -44t-72 -19.5q-70 0 -103.5 49t-33.5 115v549q0 53 42 90t97 37h549 q59 0 102.5 -43t43.5 -103q0 -59 -43 -101t-103 -42h-393v-182q29 16 71 27t113 11q119 0 204 -44t139.5 -111.5t80 -146t25.5 -148.5q0 -78 -31 -165t-94.5 -160.5t-162.5 -122t-234 -48.5q-115 0 -206 36t-161 95q-25 23 -41 52.5t-16 68.5z" />
<glyph unicode="6" horiz-adv-x="1196" d="M72 489q0 78 28.5 173.5t84 200t134 216t179.5 221.5q29 29 62.5 47.5t80.5 18.5q70 0 117 -39t47 -100q0 -37 -13.5 -63.5t-35.5 -51.5q-45 -51 -82 -97t-66 -95q16 4 36 6t32 2q102 0 185 -34t141.5 -94.5t90 -144.5t31.5 -184q0 -115 -42 -207t-112.5 -155.5 t-165.5 -97.5t-202 -34q-131 0 -230.5 39t-166 106.5t-100 162t-33.5 204.5zM406 475q0 -51 18 -88t47 -61.5t65.5 -37t71.5 -12.5q86 0 147.5 52.5t61.5 142.5q0 37 -13 73t-40 65.5t-66 47t-90 17.5q-45 0 -83 -16.5t-64.5 -43t-40.5 -63.5t-14 -76z" />
<glyph unicode="7" horiz-adv-x="968" d="M20 1204q0 59 42 101.5t102 42.5h641q59 0 101 -36t42 -95q0 -33 -13 -69t-26 -65l-438 -1003q-23 -47 -64.5 -72.5t-89.5 -25.5q-78 0 -122.5 51t-44.5 114q0 37 16 76l393 836h-395q-59 0 -101.5 43t-42.5 102z" />
<glyph unicode="8" horiz-adv-x="1126" d="M72 410q0 104 42 188t115 143q-57 49 -90 116t-33 147q0 84 36 151.5t98.5 115.5t145.5 73.5t177 25.5t177 -25.5t145.5 -73.5t98.5 -116t36 -151q0 -80 -33 -146.5t-90 -116.5q72 -59 115 -143t43 -188q0 -92 -39 -172t-105.5 -139.5t-156.5 -94.5t-191 -35 q-102 0 -191 35t-155.5 94.5t-105.5 139t-39 172.5zM383 410q0 -76 52 -128.5t128 -52.5t128 52.5t52 128.5t-52 128t-128 52t-128 -52t-52 -128zM399 961q0 -33 13.5 -63t36 -52.5t52 -35.5t62.5 -13t62.5 13t51 35.5t35 52.5t13.5 63q0 66 -48 113.5t-114 47.5 q-33 0 -62.5 -13t-52 -34.5t-36 -51t-13.5 -62.5z" />
<glyph unicode="9" horiz-adv-x="1196" d="M72 872q0 115 42 207t112.5 155.5t165.5 97.5t202 34q131 0 230.5 -39t166 -106.5t100 -161.5t33.5 -205q0 -78 -28.5 -173t-84 -199.5t-134 -216t-179.5 -222.5q-29 -29 -62.5 -47.5t-80.5 -18.5q-70 0 -117 39t-47 101q0 37 13.5 63.5t35.5 50.5q45 51 82 97.5t66 95.5 q-16 -4 -36 -6t-32 -2q-102 0 -185 33.5t-141.5 94t-90 144.5t-31.5 184zM379 872q0 -37 13.5 -72.5t40 -65t65.5 -47t90 -17.5q45 0 83 16t64.5 43t41 62.5t14.5 76.5q0 51 -18.5 88t-48.5 61.5t-65.5 37t-70.5 12.5q-86 0 -147.5 -52t-61.5 -143z" />
<glyph unicode=":" horiz-adv-x="489" d="M82 147q0 68 47 115t115 47t116 -47t48 -115t-48.5 -114.5t-115.5 -46.5q-68 0 -115 46.5t-47 114.5zM82 817q0 68 47 116t115 48t116 -48t48 -116t-48.5 -115t-115.5 -47q-68 0 -115 47t-47 115z" />
<glyph unicode=";" horiz-adv-x="499" d="M80 143q0 68 48 117t116 49q78 0 126 -55t48 -160q0 -61 -28 -109t-69.5 -82t-90 -51.5t-91.5 -17.5q-16 0 -27.5 9.5t-11.5 27.5q0 16 18.5 30.5t39.5 28.5q14 10 25.5 19.5t11.5 19.5q0 12 -18.5 22.5t-40 27t-39 46t-17.5 78.5zM84 817q0 68 48 116t116 48t118 -48 t50 -116t-50.5 -115t-117.5 -47q-68 0 -116 47t-48 115z" />
<glyph unicode="&#x3c;" horiz-adv-x="815" d="M51 494q0 31 15.5 58.5t44.5 43.5l483 278q41 25 86 11.5t68 -54.5q25 -41 11 -87t-54 -68l-314 -182l318 -183q41 -23 52 -68.5t-13 -86.5q-23 -41 -70 -53.5t-88 12.5l-479 278q-29 16 -44.5 44t-15.5 57z" />
<glyph unicode="=" horiz-adv-x="929" d="M72 305q0 47 33.5 81t80.5 34h559q47 0 80 -34t33 -81t-35 -81t-82 -34h-555q-47 0 -80.5 34t-33.5 81zM72 635q0 47 33.5 81t80.5 34h559q47 0 80 -34t33 -81t-35 -81t-82 -34h-555q-47 0 -80.5 34t-33.5 81z" />
<glyph unicode="&#x3e;" horiz-adv-x="815" d="M54.5 243q11.5 46 51.5 68l318 183l-313 182q-41 23 -54.5 69t11.5 86q23 41 67.5 54.5t85.5 -11.5l484 -278q29 -16 44 -44t15 -58q0 -29 -15.5 -56.5t-43.5 -44.5l-480 -278q-41 -25 -88 -12.5t-69 53.5q-25 41 -13.5 87z" />
<glyph unicode="?" horiz-adv-x="917" d="M31 1135q0 57 39 98q68 76 161 107.5t177 31.5q106 0 188 -32.5t137 -87t84 -121t29 -134.5q0 -76 -23.5 -130t-59.5 -94t-78 -69.5t-78 -55t-59.5 -52.5t-23.5 -61q0 -47 -37.5 -87t-113.5 -40q-63 0 -107.5 44t-44.5 115q0 55 23.5 92t57.5 66t75 53.5t74.5 52t57 62.5 t23.5 86q0 49 -30.5 77.5t-91.5 28.5q-72 0 -117 -51q-23 -25 -51.5 -37t-59.5 -12q-63 0 -107 45t-44 105zM209 145q0 68 47 116t117 48q68 0 116 -48t48 -116q0 -70 -48.5 -117.5t-115.5 -47.5q-70 0 -117 47.5t-47 117.5z" />
<glyph unicode="@" horiz-adv-x="1499" d="M63 659q0 135 50.5 264.5t142.5 228.5t223 159.5t295 60.5q143 0 261 -46t202 -127t131 -191.5t47 -237.5q0 -100 -26.5 -190.5t-72.5 -158t-108.5 -106.5t-136.5 -39q-53 0 -93 13.5t-67 48.5q-41 -33 -82 -46t-88 -13q-86 0 -150.5 33.5t-107.5 88t-63.5 121 t-20.5 131.5q0 66 20.5 132.5t63.5 121t107.5 88t150.5 33.5q70 0 133.5 -23.5t109.5 -66.5t73.5 -105.5t27.5 -140.5v-182q0 -20 19 -21q18 0 36.5 23t32 60.5t21.5 89t8 108.5q0 88 -31.5 159.5t-88 123t-134.5 79t-168 27.5q-111 0 -201 -43t-154.5 -112.5t-99 -160.5 t-34.5 -186q0 -33 7 -81t26.5 -101t53.5 -106.5t88 -95.5t131 -67.5t183 -25.5q63 0 136 8.5t122 22.5q16 4 32.5 8t29.5 4q39 0 73.5 -29.5t34.5 -78.5q0 -35 -23.5 -65t-56.5 -40q-39 -12 -84 -20t-91 -12.5t-90 -6.5t-79 -2q-201 0 -338 67.5t-222 171t-123 224.5 t-38 227zM618 649q0 -86 37 -132t86 -46q53 0 91 40t38 138q0 94 -37.5 135t-91.5 41q-49 0 -86 -47t-37 -129z" />
<glyph unicode="A" horiz-adv-x="1249" d="M20 166q0 33 13 63l434 1024q23 55 62.5 81t93.5 26q49 0 93 -24.5t68 -82.5l433 -1024q12 -31 12 -65q0 -33 -12.5 -63.5t-35 -55.5t-54 -39t-70.5 -14q-51 0 -97.5 27.5t-62.5 80.5l-37 109h-473l-35 -109q-16 -51 -60 -79.5t-97 -28.5q-78 0 -126.5 53t-48.5 121z M475 475h293l-150 438z" />
<glyph unicode="B" horiz-adv-x="1179" d="M123 172v1004q0 72 50 122t122 50h344q82 0 158.5 -18.5t135 -60.5t94.5 -109.5t36 -166.5q0 -78 -37 -150.5t-119 -119.5q82 -29 126 -73t65.5 -90t25.5 -88t4 -62q0 -121 -46 -200t-116.5 -125t-157.5 -65.5t-169 -19.5h-344q-72 0 -122 50t-50 122zM467 291h172 q72 0 117 30.5t45 108.5q0 72 -51.5 105.5t-131.5 33.5h-151v-278zM467 815h133q59 0 97 24.5t38 96.5q0 121 -135 121h-133v-242z" />
<glyph unicode="C" horiz-adv-x="1239" d="M61 655q0 166 57.5 298t154 225.5t222.5 143.5t265 50q102 0 199.5 -25.5t156.5 -72.5q33 -25 51.5 -56.5t18.5 -66.5q0 -72 -42 -114t-100 -42q-18 0 -36.5 5.5t-38.5 15.5q-41 16 -89.5 35.5t-117.5 19.5q-90 0 -158.5 -35t-116 -93t-72 -133t-24.5 -153t25.5 -147.5 t75 -122.5t119 -85t155.5 -32q76 0 123 19.5t84 36.5q41 20 74 20q63 0 102 -43t39 -113q0 -68 -55 -118q-53 -51 -149.5 -77t-213.5 -26q-160 0 -290 58.5t-223 155t-144.5 219t-51.5 253.5z" />
<glyph unicode="D" horiz-adv-x="1347" d="M123 172v1004q0 72 50 122t122 50h272q57 0 133 -4.5t157 -28t161 -74.5t145 -145q70 -96 96.5 -202t26.5 -216q0 -139 -36 -262t-117.5 -215t-214 -146.5t-324.5 -54.5h-299q-72 0 -122 50t-50 122zM467 303h147q96 0 160 31t100.5 82t52 117.5t15.5 138.5 q0 57 -14.5 124.5t-50.5 125.5q-29 45 -88.5 83.5t-174.5 38.5h-147v-741z" />
<glyph unicode="E" horiz-adv-x="954" d="M123 172v1004q0 72 50 122t122 50h446q63 0 107.5 -44t44.5 -108q0 -63 -44 -107.5t-108 -44.5h-274v-208h238q63 0 107 -44t44 -106q0 -63 -44 -107t-107 -44h-238v-232h274q63 0 107.5 -44t44.5 -107t-44 -107.5t-108 -44.5h-446q-72 0 -122 50t-50 122z" />
<glyph unicode="F" horiz-adv-x="907" d="M123 162v1014q0 72 50 122t122 50h420q63 0 107 -44t44 -108q0 -63 -44 -107.5t-107 -44.5h-248v-229h199q63 0 108 -44t45 -105q0 -63 -45 -107.5t-108 -44.5h-199v-352q0 -72 -50 -122t-122 -50t-122 50t-50 122z" />
<glyph unicode="G" horiz-adv-x="1470" d="M61 682q0 150 55.5 275.5t150.5 218t224.5 144.5t276.5 52q129 0 245.5 -32.5t188.5 -77.5q47 -29 65.5 -58.5t18.5 -70.5q0 -70 -49 -112t-107 -42q-37 0 -63.5 12.5t-63 27.5t-91 27.5t-144.5 12.5q-80 0 -148.5 -29t-118.5 -79t-79 -120.5t-29 -154.5q0 -106 32 -181 t84 -123t118.5 -69.5t134.5 -21.5q145 0 217 50t72 142v49h-99q-63 0 -107 37t-44 100t44 102.5t107 39.5h215q72 0 122 -50.5t50 -121.5v-267q0 -35 -23.5 -96t-88 -120.5t-177 -102.5t-290.5 -43q-154 0 -282 52t-220 143.5t-144.5 216.5t-52.5 270z" />
<glyph unicode="H" horiz-adv-x="1374" d="M123 162v1024q0 72 50 122t122 50t122 -50.5t50 -121.5v-344h440v344q0 72 50.5 122t121.5 50q72 0 122 -50.5t50 -121.5v-1024q0 -72 -50 -122t-122 -50t-122 50t-50 122v377h-440v-377q0 -72 -50 -122t-122 -50t-122 50t-50 122z" />
<glyph unicode="I" horiz-adv-x="731" d="M31 135q0 57 40 97t95 40h37v803h-37q-55 0 -95 40t-40 95q0 57 40 97.5t95 40.5h399q57 0 96 -40t39 -98q0 -55 -39.5 -95t-97.5 -40h-16v-803h18q57 0 96 -39.5t39 -97.5q0 -55 -39.5 -95t-97.5 -40h-397q-55 0 -95 40t-40 95z" />
<glyph unicode="J" horiz-adv-x="1030" d="M31 291q0 33 10 64.5t30.5 56t50.5 39t66 14.5q70 0 110 -31t69 -94q16 -33 37.5 -52.5t54.5 -19.5q66 0 85 50.5t19 127.5v740q0 72 50.5 122t121.5 50q72 0 122 -50.5t50 -121.5v-721q0 -236 -109.5 -367t-336.5 -131q-109 0 -190 32t-134 80t-79.5 105.5t-26.5 106.5z " />
<glyph unicode="K" horiz-adv-x="1130" d="M123 162v1024q0 72 50 122t122 50t122 -50.5t50 -121.5v-449l338 549q35 58 91 70q13 3 27 3q43 0 87 -28q58 -37 70 -105q3 -16 3 -31q0 -49 -28 -91l-287 -428l313 -434q19 -26 25 -58q2 -14 3 -28q0 -18 -4 -36q-7 -32 -26.5 -59.5t-48.5 -46.5q-28 -18 -60 -23 q-13 -2 -27 -2q-17 0 -35 4q-30 7 -57.5 25.5t-45.5 47.5l-338 514v-418q0 -72 -50 -122t-122 -50t-122 50t-50 122z" />
<glyph unicode="L" horiz-adv-x="892" d="M123 172v1014q0 72 50 122t122 50t122 -50.5t50 -121.5v-883h254q63 0 107 -44t44 -107t-44 -107.5t-107 -44.5h-426q-72 0 -122 50t-50 122z" />
<glyph unicode="M" horiz-adv-x="1673" d="M123 162v1024q0 33 13.5 64.5t37 55t55 38t66.5 14.5q49 0 90 -27.5t64 -73.5l387 -755l389 755q23 47 61.5 74t91.5 27q68 0 120 -49t52 -123v-1024q0 -72 -47 -122t-119 -50t-119.5 50t-47.5 122v373l-220 -435q-25 -47 -64.5 -79.5t-96.5 -32.5q-53 0 -95.5 30.5 t-64.5 81.5l-219 435v-373q0 -72 -48.5 -122t-119.5 -50q-72 0 -119 50t-47 122z" />
<glyph unicode="N" horiz-adv-x="1429" d="M123 156v1030q0 72 48 122t120 50q43 0 79 -20.5t62 -53.5l547 -706v616q0 68 47 116t117 48q68 0 116 -48t48 -116v-1032q0 -72 -48.5 -122t-119.5 -50q-45 0 -80 20.5t-62 52.5l-544 699v-606q0 -68 -48.5 -116t-117.5 -48q-68 0 -116 48t-48 116z" />
<glyph unicode="O" d="M61 674q0 143 55.5 271t149.5 222.5t221 149.5t273 55q143 0 271 -55t222.5 -149.5t149.5 -222.5t55 -271q0 -145 -55 -273.5t-149.5 -224.5t-222.5 -151.5t-271 -55.5q-145 0 -272.5 55.5t-221.5 151.5t-149.5 224.5t-55.5 273.5zM393 674q0 -80 28 -151.5t76 -125 t115.5 -85t147.5 -31.5t147.5 31.5t115.5 85t75.5 125t27.5 151.5t-27.5 150.5t-75.5 122.5t-115.5 83t-147.5 31t-147.5 -31t-115.5 -83t-76 -122.5t-28 -150.5z" />
<glyph unicode="P" horiz-adv-x="1187" d="M123 162v1014q0 72 50 122t122 50h330q254 0 383 -116t129 -339q0 -113 -34 -200t-96.5 -147.5t-150.5 -92t-194 -31.5h-195v-260q0 -72 -50 -122t-122 -50t-122 50t-50 122zM467 725h125q25 0 61.5 2t70.5 17.5t58.5 48t24.5 94.5q0 59 -24.5 91t-60.5 47t-75 17t-67 2 h-113v-319z" />
<glyph unicode="Q" d="M61 674q0 143 55.5 271t149.5 222.5t221 149.5t273 55q143 0 271 -55t222.5 -149.5t149.5 -222.5t55 -271q0 -115 -34.5 -218.5t-96.5 -189.5l53 -49q46 -42 46 -102q0 -57 -40 -101q-41 -45 -101 -46h-3q-58 0 -100 40l-66 62q-78 -47 -168 -74t-188 -27 q-145 0 -272.5 55.5t-221.5 151.5t-149.5 224.5t-55.5 273.5zM393 674q0 -80 28 -151.5t76 -125t115.5 -85t147.5 -31.5q66 0 119 20q-31 39 -31 86v6q2 51 39 92q41 43 99 47q6 1 11 1q51 0 90 -37q39 84 39 178q0 80 -27.5 150.5t-75.5 122.5t-115.5 83t-147.5 31 t-147.5 -31t-115.5 -83t-76 -122.5t-28 -150.5z" />
<glyph unicode="R" horiz-adv-x="1179" d="M123 162v1014q0 72 50 122t122 50h330q254 0 383 -116t129 -339q0 -160 -68 -269.5t-186 -160.5l204 -219q43 -47 43 -105q0 -55 -41.5 -102t-105.5 -47q-63 0 -115 51l-360 381h-41v-260q0 -72 -50 -122t-122 -50t-122 50t-50 122zM467 725h125q25 0 61.5 2t70.5 17.5 t58.5 48t24.5 94.5q0 59 -24.5 91t-60.5 47t-75 17t-67 2h-113v-319z" />
<glyph unicode="S" horiz-adv-x="1032" d="M41 231q0 63 34 95t87 32q41 0 75.5 -18t72.5 -39.5t83 -39t109 -17.5q51 0 94 30.5t43 83.5q0 27 -12.5 50.5t-42 48t-80.5 52.5t-129 62q-66 29 -122 63t-98 79t-65.5 105.5t-23.5 139.5q0 100 39.5 178t104 130.5t146.5 79t168 26.5q78 0 153 -16.5t133 -47t94 -73.5 t36 -96q0 -59 -30.5 -95t-94.5 -36q-31 0 -62.5 14t-65.5 30.5t-73 31t-88 14.5q-47 0 -82.5 -23.5t-35.5 -77.5q0 -23 6 -42t32.5 -40.5t77.5 -50t142 -71.5q92 -45 153.5 -90.5t97 -92.5t50 -99t14.5 -112q0 -80 -23.5 -156.5t-78 -138t-144.5 -98.5t-223 -37 q-94 0 -180 20.5t-150.5 56.5t-102.5 83t-38 102z" />
<glyph unicode="T" horiz-adv-x="927" d="M20 1196q0 63 44.5 107.5t107.5 44.5h584q63 0 107 -44t44 -108q0 -63 -44 -107.5t-107 -44.5h-119v-882q0 -72 -50 -122t-122 -50t-122 50t-50 122v882h-121q-63 0 -107.5 44.5t-44.5 107.5z" />
<glyph unicode="U" horiz-adv-x="1374" d="M123 532v654q0 72 50 122t122 50t122 -50.5t50 -121.5v-666q0 -47 17.5 -87t46 -68.5t68.5 -46t87 -17.5q45 0 86 17.5t70.5 46t47 68.5t17.5 87v666q0 72 50.5 122t121.5 50q37 0 68 -13.5t54.5 -37t36.5 -55t13 -66.5v-654q0 -117 -45 -219t-121.5 -179t-179 -121 t-219.5 -44t-219 44t-179 121t-121 179.5t-44 218.5z" />
<glyph unicode="V" horiz-adv-x="1177" d="M20 1196q0 66 47.5 117t122.5 51q53 0 97.5 -28.5t60.5 -82.5l240 -737l241 729q18 53 61.5 86t96.5 33q37 0 67.5 -14.5t53 -37t36 -53t13.5 -61.5q0 -27 -10 -53l-391 -1041q-18 -51 -61.5 -82.5t-106.5 -31.5q-72 0 -111 32.5t-59 86.5l-385 1026q-12 31 -13 61z" />
<glyph unicode="W" horiz-adv-x="1611" d="M20 1202q0 33 12.5 63.5t35 54t54.5 38t71 14.5q57 0 103 -32.5t62 -92.5l138 -538l143 536q16 53 57 88t107 35q68 0 108.5 -32.5t57.5 -90.5l143 -540l141 542q16 57 62.5 91t103.5 34q39 0 71 -14.5t54.5 -39t34.5 -55t12 -63.5q0 -23 -6 -47l-303 -1040 q-16 -55 -61 -89t-105 -34q-57 0 -101 32.5t-61 88.5l-151 536l-150 -536q-16 -57 -61 -89t-105 -32q-57 0 -101 33.5t-60 91.5l-299 1040q-6 25 -7 47z" />
<glyph unicode="X" horiz-adv-x="1089" d="M31 154q0 47 28 92l293 428l-293 430q-28 44 -28 89q0 34 12 63.5t34.5 53t52.5 37t67 13.5q41 0 76.5 -19.5t58.5 -54.5l213 -325l213 325q23 35 58.5 54.5t76.5 19.5q72 0 119 -50t47 -114q0 -47 -29 -92l-295 -430l295 -428q29 -45 29 -92q0 -31 -12.5 -61t-34 -52.5 t-51 -36.5t-66.5 -14q-41 0 -78 18.5t-59 52.5l-213 332l-213 -332q-23 -35 -59.5 -53t-77.5 -18q-74 0 -119 51t-45 113z" />
<glyph unicode="Y" horiz-adv-x="1067" d="M20 1194q0 33 12.5 62.5t34 52t51 37t66.5 14.5q49 0 81 -19.5t54 -54.5l213 -325l213 325q23 35 56 54.5t82 19.5q35 0 65.5 -14.5t52 -37t34 -52t12.5 -60.5q0 -47 -29 -92l-311 -457v-485q0 -72 -50.5 -122t-121.5 -50q-37 0 -68 13t-54.5 36.5t-37 55.5t-13.5 67v481 l-315 461q-27 39 -27 90z" />
<glyph unicode="Z" horiz-adv-x="966" d="M51 1196q0 63 44 107.5t108 44.5h553q63 0 107 -39t44 -113q0 -39 -3 -69.5t-10 -57.5t-18.5 -51.5t-27.5 -52.5l-371 -664h287q63 0 107 -44t44 -105q0 -63 -44 -107.5t-107 -44.5h-586q-59 0 -90 31.5t-31 77.5q0 66 20.5 123t59.5 128l385 687h-319q-63 0 -107.5 44 t-44.5 105z" />
<glyph unicode="[" horiz-adv-x="694" d="M82 -193v1369q0 72 50 122t122 50h248q63 0 107 -44t44 -108q0 -63 -44 -107.5t-107 -44.5h-96v-1105h96q63 0 107 -44.5t44 -107.5t-44 -107.5t-107 -44.5h-248q-35 0 -66.5 13.5t-55 37t-37 54.5t-13.5 67z" />
<glyph unicode="\" horiz-adv-x="714" d="M22 1220.5q3 32.5 18 61.5t39.5 50.5t57.5 31.5t66 6t61.5 -18.5t50 -40t31.5 -58.5l340 -1071q10 -33 6 -65.5t-18.5 -61t-40 -50t-58.5 -32.5q-33 -10 -65.5 -6t-61 18.5t-50 40t-31.5 58.5l-338 1071q-10 33 -7 65.5z" />
<glyph unicode="]" horiz-adv-x="694" d="M41 -213q0 63 44 107.5t108 44.5h96v1105h-96q-63 0 -107.5 44.5t-44.5 107.5t44 107.5t108 44.5h247q72 0 122 -50.5t50 -121.5v-1369q0 -37 -13 -67.5t-36.5 -54t-55.5 -37t-67 -13.5h-247q-63 0 -107.5 44.5t-44.5 107.5z" />
<glyph unicode="^" horiz-adv-x="792" d="M4 747q-12 46 12 87l279 481q16 29 44 43t56 14q31 0 58.5 -14.5t44.5 -42.5l278 -484q25 -41 11.5 -86t-54.5 -69q-41 -23 -87 -10.5t-68 53.5l-183 313l-182 -315q-23 -41 -69 -52.5t-87 11.5q-41 25 -53 71z" />
<glyph unicode="_" horiz-adv-x="1183" d="M0 -346q0 47 34 81t81 34h956q47 0 80 -34t33 -81t-34 -81t-81 -34h-954q-47 0 -81 34t-34 81z" />
<glyph unicode="`" horiz-adv-x="368" d="M0 1407q0 43 31.5 67.5t62.5 24.5q29 0 51 -16l181 -131q43 -31 43 -78q0 -37 -23.5 -66.5t-73.5 -29.5q-31 0 -53 16l-174 127q-45 33 -45 86z" />
<glyph unicode="a" horiz-adv-x="1228" d="M51 510q0 92 33 187.5t100.5 173t170 127t239.5 49.5q111 0 208 -42t168.5 -116t113.5 -172.5t42 -208.5v-393q0 -61 -33.5 -106.5t-97.5 -45.5q-18 0 -40.5 7t-41 20.5t-31 34t-12.5 49.5q-49 -51 -116.5 -78t-159.5 -27q-137 0 -239.5 49.5t-170 127t-100.5 174 t-33 190.5zM352 506q0 -55 19.5 -101.5t52.5 -80t77 -53t93 -19.5t93 19.5t78 53t53.5 81t19.5 102.5t-19.5 102t-53.5 82t-78 54.5t-93 19.5t-93 -19.5t-77 -54.5t-52.5 -83t-19.5 -103z" />
<glyph unicode="b" horiz-adv-x="1241" d="M102 504v860q0 63 43 107.5t107 44.5q63 0 107 -44.5t44 -107.5v-373q53 27 112.5 41.5t131.5 14.5q137 0 239.5 -49.5t170 -128t100.5 -175t33 -188.5t-33 -187.5t-100.5 -173t-170 -127t-239.5 -49.5q-139 0 -241.5 47t-170 123t-100.5 171.5t-33 193.5zM403 506 q0 -51 16.5 -98.5t48.5 -83t77 -57t102 -21.5q51 0 95 19.5t78 55t53.5 83t19.5 102.5t-19.5 102t-53.5 83t-78 55.5t-95 19.5q-57 0 -102 -21.5t-77 -57.5t-48.5 -83t-16.5 -98z" />
<glyph unicode="c" horiz-adv-x="1062" d="M51 510q0 111 41 209t112.5 171t169 115t212.5 42q111 0 206 -38t169 -106q23 -20 31.5 -46t8.5 -52q0 -57 -34.5 -98t-81.5 -41q-37 0 -63.5 18t-56.5 42t-69 42t-100 18q-117 0 -182.5 -78.5t-65.5 -199.5q0 -119 65.5 -198t182.5 -79q57 0 96 18.5t70 42t58.5 42 t62.5 18.5q47 0 82.5 -42t35.5 -99t-40 -98q-72 -66 -164 -105t-205 -39q-115 0 -213 42t-171 116t-115 172t-42 211z" />
<glyph unicode="d" horiz-adv-x="1241" d="M51 506q0 92 33 188.5t100.5 175t170 128t239.5 49.5q72 0 131 -14.5t113 -41.5v373q0 63 44 107.5t107 44.5t106.5 -44.5t43.5 -107.5v-860q0 -98 -34 -193.5t-101.5 -171.5t-170 -123t-239.5 -47t-239.5 49.5t-170 127t-100.5 173t-33 187.5zM348 506 q0 -55 19.5 -102.5t53.5 -83t78 -55t95 -19.5q115 0 180.5 74.5t69.5 185.5v11q0 49 -16 91q-18 47 -50.5 83t-79.5 55.5t-104 19.5q-51 0 -95 -19.5t-78 -55.5t-53.5 -83t-19.5 -102z" />
<glyph unicode="e" horiz-adv-x="1155" d="M51 506q0 104 36 202.5t103.5 173t166 120t223.5 45.5q135 0 234 -46.5t164.5 -121t98.5 -170t33 -195.5q0 -47 -33 -73.5t-80 -26.5h-647q23 -84 92.5 -141.5t180.5 -57.5q86 0 138 17.5t87 41.5q27 20 52.5 32.5t53.5 12.5q53 0 82 -33.5t29 -86.5q0 -39 -34 -80 t-93 -74t-139 -54.5t-172 -21.5q-123 0 -228.5 42t-182.5 114t-121 170t-44 211zM360 623h447q-6 27 -21.5 56.5t-41 55t-65.5 42t-97 16.5q-49 0 -88 -16.5t-66 -42t-44 -55.5t-24 -56z" />
<glyph unicode="f" horiz-adv-x="677" d="M20 879q0 53 39 92t93 39v67q0 88 20.5 168t69.5 139.5t128 95.5t195 36q57 0 97 -34t40 -100q0 -61 -34.5 -98t-85.5 -43q-63 -8 -96 -46t-33 -89v-96h94q53 0 92 -39t39 -92t-39 -92t-92 -39h-94v-607q0 -63 -44 -107t-108 -44q-63 0 -106 44t-43 107v607 q-53 0 -92.5 38.5t-39.5 92.5z" />
<glyph unicode="g" horiz-adv-x="1241" d="M51 510q0 92 33 188.5t100.5 173t170 126t241.5 49.5q137 0 239.5 -49.5t170 -126t100.5 -172t33 -187.5v-403q0 -123 -33 -230.5t-101.5 -187.5t-176 -126t-257.5 -46q-100 0 -189 22.5t-156.5 57t-107.5 80t-40 92.5q0 53 30.5 91t84.5 38q31 0 53 -13.5t49 -31.5 q39 -29 99.5 -55.5t174.5 -26.5q45 0 92.5 15t86 46t62.5 75t24 99v45q-104 -63 -238 -63q-139 0 -241.5 46t-170 120.5t-100.5 168t-33 185.5zM352 510q0 -55 19.5 -99t53.5 -76t78 -48.5t93 -16.5q104 0 173 64.5t69 175.5q0 55 -19.5 102t-52.5 81t-77 53.5t-93 19.5 t-93 -19.5t-78 -53.5t-53.5 -81t-19.5 -102z" />
<glyph unicode="h" horiz-adv-x="1142" d="M102 141v1223q0 63 43 107.5t107 44.5q63 0 107 -44.5t44 -107.5v-369q33 23 75 37.5t93 14.5q106 0 192.5 -34t148 -95.5t95 -147.5t33.5 -190v-439q0 -63 -44 -107t-107 -44t-106.5 44t-43.5 107v400q0 96 -37.5 159.5t-132.5 63.5q-92 0 -129 -63.5t-37 -159.5v-400 q0 -63 -44 -107t-107 -44t-106.5 44t-43.5 107z" />
<glyph unicode="i" horiz-adv-x="505" d="M102 141v740q0 63 43 107t107 44q63 0 107 -44t44 -107v-740q0 -63 -44 -107t-107 -44t-106.5 44t-43.5 107zM102 1288q0 63 43 107.5t107 44.5q63 0 107 -44t44 -108q0 -63 -44 -106t-107 -43t-106.5 43t-43.5 106z" />
<glyph unicode="j" horiz-adv-x="505" d="M-106 -344q0 53 34.5 92t85.5 45q31 4 49.5 18.5t26.5 36t10 48t2 51.5v934q0 63 43 107t107 44q63 0 107 -44t44 -107v-924q0 -88 -11 -168t-50 -139.5t-112.5 -95t-198.5 -35.5q-57 0 -97 40t-40 97zM102 1288q0 63 43 107.5t107 44.5q63 0 107 -44t44 -108 q0 -63 -44 -106t-107 -43t-106.5 43t-43.5 106z" />
<glyph unicode="k" horiz-adv-x="960" d="M102 141v1223q0 63 43 107.5t107 44.5q63 0 107 -44.5t44 -107.5v-723l283 336q23 27 52.5 41t60.5 14q29 0 52 -13t40.5 -33.5t28 -45.5t10.5 -49q0 -45 -31 -78l-229 -254l225 -346q23 -36 23 -72v-6q0 -53 -39 -99t-103 -46q-37 0 -69.5 17.5t-53.5 51.5l-250 422 v-340q0 -63 -44 -107t-107 -44t-106.5 44t-43.5 107z" />
<glyph unicode="l" horiz-adv-x="587" d="M102 297v1067q0 63 43 107.5t107 44.5q63 0 107 -44.5t44 -107.5v-999q0 -35 20.5 -53.5t55.5 -28.5q47 -14 78 -49t31 -101q0 -39 -14.5 -66.5t-38 -44t-52 -24.5t-55.5 -8q-74 0 -133 24.5t-102 65.5t-67 97t-24 120z" />
<glyph unicode="m" horiz-adv-x="1755" d="M102 141v439q0 92 26 176t81 148.5t142 103.5t210 39q109 0 187.5 -30t134.5 -79q57 51 133 80t180 29q117 0 203 -39t142 -103.5t84 -148.5t28 -176v-439q0 -63 -44 -107t-108 -44q-63 0 -106 44t-43 107v400q0 47 -8.5 88t-27 71.5t-49 48t-77.5 17.5t-78 -17.5 t-49.5 -48t-26.5 -71.5t-8 -88v-400q0 -63 -44 -107t-107 -44t-106.5 44t-43.5 107v414q0 45 -8 83t-27.5 66.5t-50.5 45t-76 16.5q-92 0 -127 -64.5t-35 -160.5v-400q0 -63 -44 -107t-107 -44t-106.5 44t-43.5 107z" />
<glyph unicode="n" horiz-adv-x="1130" d="M102 139v441q0 92 29 176t86 148.5t144.5 103.5t203.5 39q117 0 204 -38t144.5 -102.5t86 -149.5t28.5 -177v-441q0 -63 -44 -106t-107 -43t-106.5 43t-43.5 106v402q0 96 -34 160.5t-128 64.5t-128 -64.5t-34 -160.5v-402q0 -63 -44 -106t-107 -43t-106.5 43t-43.5 106z " />
<glyph unicode="o" horiz-adv-x="1198" d="M51 506q0 113 43 211t118 172t174 116t212 42t212 -42t174 -116t119 -172.5t44 -210.5q0 -113 -44 -210t-119 -170t-174 -115t-212 -42t-212 42t-174 115t-118 170t-43 210zM348 506q0 -57 20.5 -105.5t55.5 -82t80 -53t94 -19.5t94 19.5t81 53t56.5 82t20.5 105.5 t-20.5 105t-56.5 82t-81 53.5t-94 19.5t-94 -19.5t-80 -53.5t-55.5 -82t-20.5 -105z" />
<glyph unicode="p" horiz-adv-x="1241" d="M102 -330v842q0 98 33 193.5t100.5 171t170 123t241.5 47.5q137 0 239.5 -49.5t170 -127t100.5 -173t33 -187.5t-33 -188.5t-100.5 -175t-170 -128t-239.5 -49.5q-72 0 -131 14.5t-113 41.5v-355q0 -63 -44 -107t-107 -44t-106.5 44t-43.5 107zM403 510q0 -51 16.5 -98 t48.5 -83t77 -57.5t102 -21.5q51 0 95 19.5t78 55t53.5 83t19.5 102.5t-19.5 102t-53.5 83t-78 55.5t-95 19.5q-57 0 -102 -21.5t-77 -57.5t-48.5 -83t-16.5 -98z" />
<glyph unicode="q" horiz-adv-x="1241" d="M51 510q0 92 33 187.5t100.5 173t170 127t239.5 49.5t239.5 -47.5t170 -123t101.5 -171t34 -193.5v-842q0 -63 -43 -107t-107 -44q-63 0 -107 44t-44 107v355q-53 -27 -112.5 -41.5t-131.5 -14.5q-137 0 -239.5 49.5t-170 128t-100.5 175t-33 188.5zM348 510 q0 -55 19.5 -102.5t53.5 -83t78 -55t95 -19.5q57 0 102 21.5t77 57.5t48.5 83t16.5 98t-16.5 98t-48.5 83t-77 57.5t-102 21.5q-51 0 -95 -19.5t-78 -55.5t-53.5 -83t-19.5 -102z" />
<glyph unicode="r" horiz-adv-x="710" d="M102 139v445q0 92 25 176t77 147.5t135 101.5t200 38q68 0 109.5 -41t41.5 -99q0 -59 -33.5 -95t-91.5 -36q-162 0 -162 -205v-432q0 -63 -44 -106t-107 -43t-106.5 43t-43.5 106z" />
<glyph unicode="s" horiz-adv-x="903" d="M51 193q0 55 29 89.5t82 34.5q33 0 59.5 -16t56 -34.5t66.5 -35t90 -16.5q61 0 86 24.5t25 53.5q0 63 -156 125q-68 27 -127 54.5t-102 63t-68.5 81t-25.5 106.5q0 160 104 242t285 82q74 0 139 -19.5t112.5 -51.5t75 -72t27.5 -79q0 -53 -28.5 -83.5t-80.5 -30.5 q-33 0 -56 16t-49 34.5t-58.5 35t-85.5 16.5q-35 0 -59.5 -22.5t-24.5 -51.5q0 -35 47 -65.5t157 -71.5q55 -20 106.5 -46t89.5 -61.5t61.5 -84t23.5 -111.5q0 -84 -29.5 -146.5t-84 -103.5t-131.5 -60.5t-169 -19.5q-90 0 -161.5 19.5t-122 52.5t-77 72t-26.5 80z" />
<glyph unicode="t" horiz-adv-x="708" d="M20 879q0 53 39 92t93 39v194q0 63 43 107.5t106 44.5t107.5 -44t44.5 -108v-194h94q53 0 92 -39t39 -92t-39 -92t-92 -39h-94v-349q0 -51 22.5 -89t85.5 -46q51 -6 84 -43t33 -98q0 -66 -38 -99.5t-95 -33.5q-117 0 -193 35.5t-121 95t-62 139.5t-17 168v320 q-53 0 -92.5 38.5t-39.5 92.5z" />
<glyph unicode="u" horiz-adv-x="1130" d="M102 442v441q0 63 44 106t108 43q63 0 106 -43t43 -106v-402q0 -96 34 -160.5t128 -64.5t128 64.5t34 160.5v402q0 63 44 106t108 43q63 0 106 -43t43 -106v-441q0 -92 -28.5 -176t-86 -148.5t-144.5 -103.5t-204 -39t-204 38t-144 102.5t-86 149.5t-29 177z" />
<glyph unicode="v" horiz-adv-x="968" d="M20 883q0 57 41 103t111 46q45 0 81 -26.5t52 -73.5l178 -508l181 508q16 47 53 73.5t82 26.5q68 0 108.5 -46t40.5 -103q0 -29 -8 -52l-281 -731q-23 -59 -67.5 -88.5t-108.5 -29.5q-63 0 -109 29.5t-67 88.5l-278 731q-8 23 -9 52z" />
<glyph unicode="w" horiz-adv-x="1392" d="M20 881q0 57 41 103t111 46q47 0 82 -26.5t51 -73.5l141 -457l134 455q14 47 41.5 74.5t78.5 27.5t79 -28.5t44 -77.5l129 -451l135 457q16 47 52.5 73.5t81.5 26.5q70 0 110.5 -46t40.5 -103q0 -29 -8 -52l-246 -729q-20 -59 -51 -84.5t-94 -25.5t-106.5 24.5 t-59.5 85.5l-109 392l-110 -392q-16 -59 -54 -84.5t-102 -25.5q-63 0 -101 25.5t-57 84.5l-245 729q-8 23 -9 52z" />
<glyph unicode="x" horiz-adv-x="913" d="M31 141q0 51 28 88l209 287l-198 275q-31 43 -31 92q0 57 42 103t105 46q43 0 71 -16.5t50 -46.5l150 -209l151 211q23 31 53.5 46t65.5 15q63 0 106.5 -46t43.5 -103q0 -51 -31 -90l-203 -277l211 -287q29 -37 29 -88q0 -29 -11.5 -56.5t-32 -49t-48 -33.5t-60.5 -12 q-35 0 -66.5 15t-54.5 46l-153 217l-154 -217q-23 -31 -54.5 -46t-66.5 -15q-33 0 -60.5 12t-48 33.5t-31.5 49.5t-11 56z" />
<glyph unicode="y" horiz-adv-x="968" d="M20 883q0 57 41 103t111 46q45 0 81 -26.5t52 -73.5l176 -494l178 494q16 47 53.5 73.5t82.5 26.5q68 0 110.5 -46t42.5 -103q0 -29 -8 -52l-465 -1216q-16 -45 -56 -70.5t-85 -25.5q-66 0 -108 45t-42 102q0 33 11 55l129 336l-295 774q-8 23 -9 52z" />
<glyph unicode="z" horiz-adv-x="845" d="M41 115q0 51 15.5 93t54.5 95l325 445h-260q-53 0 -88 38.5t-35 92.5q0 53 35 92t88 39h508q47 0 81 -33t34 -82q0 -51 -15.5 -93t-54.5 -95l-326 -445h279q53 0 88 -38t35 -91t-35 -93t-88 -40h-526q-47 0 -81 33t-34 82z" />
<glyph unicode="{" horiz-adv-x="727" d="M41 506q0 35 12.5 52t30.5 29.5t39.5 21.5t40 25.5t31 46.5t12.5 81v287q0 78 28.5 138t76.5 101t110.5 62.5t130.5 21.5q47 0 80 -21.5t33 -68.5q0 -43 -27 -61.5t-58.5 -36t-58 -46t-26.5 -91.5v-328q0 -86 -32 -130t-83 -83q53 -39 84 -85t31 -126v-328 q0 -63 26.5 -92t58 -46t58.5 -35.5t27 -61.5q0 -47 -33 -68.5t-80 -21.5q-68 0 -130.5 22.5t-110.5 64.5t-76.5 101t-28.5 135v287q0 78 -25.5 107.5t-57.5 44t-57.5 32t-25.5 70.5z" />
<glyph unicode="|" horiz-adv-x="710" d="M205 -254v1501q0 63 43 107.5t106 44.5t107.5 -44t44.5 -108v-1501q0 -63 -44 -107.5t-108 -44.5q-63 0 -106 44.5t-43 107.5z" />
<glyph unicode="}" horiz-adv-x="727" d="M61 -268q0 43 27 61.5t58.5 35.5t58 46t26.5 92v328q0 80 31 126t84 85q-53 39 -84 83t-31 130v328q0 63 -26.5 91.5t-58 46t-58.5 36t-27 61.5q0 47 33 68.5t80 21.5q68 0 130.5 -21.5t110.5 -62.5t76.5 -101.5t28.5 -137.5v-287q0 -51 12.5 -81t31 -46.5t40 -25.5 t40 -21.5t30.5 -29.5t12 -52q0 -53 -25.5 -70.5t-57.5 -32t-57.5 -44t-25.5 -107.5v-287q0 -76 -28.5 -135t-76.5 -101t-110.5 -64.5t-130.5 -22.5q-47 0 -80 21.5t-33 68.5z" />
<glyph unicode="~" horiz-adv-x="1013" d="M61 662q0 41 21.5 81.5t60.5 74.5t92.5 55.5t116.5 21.5q49 0 85 -14.5t68 -32t62.5 -32.5t71.5 -15q35 0 57.5 15t42 32.5t40 32t50.5 14.5q49 0 86 -29.5t37 -87.5q0 -43 -20.5 -85t-58 -73.5t-91 -52t-116.5 -20.5q-49 0 -88 15.5t-72 32.5t-62.5 32.5t-62.5 15.5 q-41 0 -64.5 -15.5t-42 -32.5t-38 -32.5t-52.5 -15.5q-53 0 -88 29.5t-35 85.5z" />
<glyph unicode="&#xa1;" horiz-adv-x="454" d="M63 881q0 70 48.5 118t117.5 48q68 0 116 -48t48 -118q0 -68 -48 -116t-116 -48q-70 0 -118 48t-48 116zM74 -180v610q0 66 45 111t110 45q66 0 111 -45t45 -111v-610q0 -66 -45 -111t-111 -45t-110.5 45t-44.5 111z" />
<glyph unicode="&#xa2;" horiz-adv-x="1052" d="M51 696q0 100 34 190.5t94.5 161t144.5 117.5t182 62v53q0 33 21.5 55.5t56.5 22.5q33 0 55.5 -22.5t22.5 -55.5v-53q88 -10 162.5 -46t136.5 -91q20 -20 30 -46t10 -52.5t-10 -53.5t-30 -47t-46 -31.5t-53.5 -11.5t-54.5 10t-47 31q-29 29 -68 46t-96 17 q-106 2 -174 -71q-66 -72 -66 -187q0 -111 65.5 -183.5t174.5 -72.5q57 0 96 17.5t68 44.5q20 20 47 30.5t54.5 10.5t53 -11.5t46.5 -31.5q20 -20 30 -47t10 -53.5t-10 -52.5t-30 -46q-59 -55 -134 -92t-165 -47v-82q0 -35 -23 -57.5t-55 -22.5q-35 0 -56.5 22.5t-21.5 57.5 v84q-98 14 -181 62t-144.5 119t-95.5 161t-34 192z" />
<glyph unicode="&#xa3;" horiz-adv-x="1044" d="M25 635q0 51 34.5 87t85.5 36q-25 45 -37 94t-12 98q0 78 31 154t90 135t147 96t203 37q98 0 182.5 -20.5t159.5 -65.5q76 -45 76 -135q0 -72 -37 -108.5t-96 -36.5q-29 0 -54.5 11t-56 23.5t-71.5 23.5t-99 11q-68 0 -115.5 -37t-47.5 -108q0 -59 19 -104.5t38 -67.5 h229q51 0 87 -36t36 -87t-36 -87t-87 -34h-186q12 -80 -18.5 -147.5t-67.5 -112.5h448q53 0 88 -37t35 -90t-34.5 -90t-88.5 -37h-702q-57 0 -93 37t-36 90q0 51 26.5 85t59.5 65.5t59.5 67.5t26.5 91q0 20 -3 39t-7 39h-54q-51 0 -86.5 35t-35.5 86z" />
<glyph unicode="&#xa5;" horiz-adv-x="1095" d="M35 1194q0 63 46 114.5t118 51.5q41 0 76.5 -19.5t58.5 -54.5l213 -325l213 325q23 35 59.5 54.5t77.5 19.5q72 0 118 -51.5t46 -114.5q0 -23 -6 -46.5t-23 -43.5l-289 -420h203q35 0 58.5 -24.5t23.5 -59.5t-24.5 -58.5t-59.5 -23.5h-223v-106h225q35 0 58.5 -23.5 t23.5 -58.5t-24.5 -58.5t-59.5 -23.5h-223v-86q0 -72 -50 -122t-122 -50q-37 0 -67.5 13t-54.5 36.5t-37 55.5t-13 67v86h-225q-35 0 -58.5 23.5t-23.5 58.5t23.5 58.5t58.5 23.5h225v106h-225q-35 0 -58.5 23.5t-23.5 58.5t23.5 59.5t58.5 24.5h196l-287 420q-27 41 -26 90 z" />
<glyph unicode="&#xa7;" horiz-adv-x="489" d="M82 817q0 68 47 116t115 48t116 -48t48 -116t-48.5 -115t-115.5 -47q-68 0 -115 47t-47 115z" />
<glyph unicode="&#xa8;" horiz-adv-x="528" d="M-18 1300q0 47 33.5 84t86.5 37q47 0 83 -36.5t36 -84.5q0 -53 -35.5 -86.5t-83.5 -33.5q-53 0 -86.5 33.5t-33.5 86.5zM297 1300q0 47 35 84t84 37t86 -36.5t37 -84.5q0 -53 -37 -86.5t-86 -33.5t-84 33.5t-35 86.5z" />
<glyph unicode="&#xa9;" horiz-adv-x="1525" d="M61 670q0 145 55.5 273t150.5 223.5t222 150.5t273 55q145 0 273 -55t223.5 -150.5t150.5 -223.5t55 -273t-55 -272.5t-150.5 -222.5t-223.5 -150.5t-273 -55.5t-272.5 55.5t-222.5 150.5t-150.5 222.5t-55.5 272.5zM184 670q0 -121 45 -225.5t124 -183.5t183.5 -124 t225.5 -45q119 0 225.5 45t184 124t123.5 183.5t46 225.5q0 119 -46 225t-123.5 184t-184 124t-225.5 46q-121 0 -225.5 -46t-183.5 -124t-124 -184t-45 -225zM344 662q0 100 35 180t93 136t135 87t161 31q61 0 120.5 -15.5t96.5 -44.5q18 -16 29.5 -33.5t11.5 -39.5 q0 -43 -25.5 -69t-60.5 -26q-20 0 -45 13q-25 10 -54.5 21t-70.5 11q-55 0 -97 -21.5t-71 -57t-43 -80.5t-14 -92t15 -89.5t45 -74t72 -51t95 -19.5q47 0 74.5 11.5t50.5 21.5q25 12 45 12q39 0 62.5 -26.5t23.5 -67.5q0 -43 -33 -72q-35 -31 -92 -47t-129 -16 q-96 0 -176 35.5t-136 94t-87 133.5t-31 155z" />
<glyph unicode="&#xaa;" horiz-adv-x="921" d="M39 971q0 70 24.5 140.5t74.5 128.5t127 95t179 37q82 0 156 -31.5t127 -86t85 -128t32 -157.5v-295q0 -47 -25.5 -81t-73.5 -34q-29 0 -60.5 21.5t-31.5 62.5q-74 -78 -209 -78q-102 0 -179 37t-127 95.5t-74.5 130t-24.5 143.5zM264 967q0 -82 53 -136.5t127 -54.5 q37 0 71 14.5t58.5 40t40 61.5t15.5 77t-15.5 76.5t-40 61.5t-58.5 40t-71 14q-74 0 -127 -54t-53 -140z" />
<glyph unicode="&#xab;" horiz-adv-x="815" d="M61 344q0 18 7.5 40t25.5 42l146 156q33 33 67 32q39 0 70 -24.5t31 -65.5q0 -20 -10.5 -41.5t-24.5 -33.5l-99 -101l95 -94q39 -39 39 -78q0 -45 -31 -69.5t-70 -24.5q-12 0 -30.5 7t-34.5 24l-148 155q-12 12 -22.5 33t-10.5 43zM408 344q0 18 7 40t25 42l146 156 q33 33 67 32q39 0 70 -24.5t31 -65.5q0 -20 -10.5 -41.5t-24.5 -33.5l-98 -101l94 -94q39 -39 39 -78q0 -45 -31 -69.5t-70 -24.5q-12 0 -30.5 7t-34.5 24l-148 155q-12 12 -22 33t-10 43z" />
<glyph unicode="&#xac;" horiz-adv-x="489" d="M82 817q0 68 47 116t115 48t116 -48t48 -116t-48.5 -115t-115.5 -47q-68 0 -115 47t-47 115z" />
<glyph unicode="&#xad;" horiz-adv-x="686" d="M61 500q0 47 34 80.5t81 33.5h336q47 0 80 -33.5t33 -80.5t-34 -81t-81 -34h-334q-47 0 -81 34t-34 81z" />
<glyph unicode="&#xae;" horiz-adv-x="1525" d="M61 670q0 145 55.5 273t150.5 223.5t222 150.5t273 55q145 0 273 -55t223.5 -150.5t150.5 -223.5t55 -273t-55 -272.5t-150.5 -222.5t-223.5 -150.5t-273 -55.5t-272.5 55.5t-222.5 150.5t-150.5 222.5t-55.5 272.5zM184 670q0 -121 45 -225.5t124 -183.5t183.5 -124 t225.5 -45q119 0 225.5 45t184 124t123.5 183.5t46 225.5q0 119 -46 225t-123.5 184t-184 124t-225.5 46q-121 0 -225.5 -46t-183.5 -124t-124 -184t-45 -225zM463 360v617q0 43 30.5 73.5t73.5 30.5h201q154 0 232.5 -70.5t78.5 -205.5q0 -98 -41 -164t-112 -96l123 -133 q27 -27 26 -64q0 -35 -25.5 -63.5t-64.5 -28.5q-37 0 -70 33l-219 231h-24v-160q0 -43 -31 -73.5t-74 -30.5t-73.5 30.5t-30.5 73.5zM672 702h76q14 0 36.5 1.5t44 10.5t36 29.5t14.5 57.5t-15.5 56.5t-37 28.5t-45 10t-40.5 1h-69v-195z" />
<glyph unicode="&#xaf;" horiz-adv-x="532" d="M-18 1270q0 39 25.5 64.5t64.5 25.5h379q41 0 66.5 -25.5t25.5 -64.5q0 -35 -25.5 -63.5t-66.5 -28.5h-379q-39 0 -64.5 28.5t-25.5 63.5z" />
<glyph unicode="&#xb0;" horiz-adv-x="501" d="M0 1260q0 55 20.5 101t54.5 80t79 52t96 18t97 -18t81 -52t54.5 -80t19.5 -101t-19.5 -101.5t-54.5 -80.5t-81 -52t-97 -18t-96 18t-79 52t-54.5 80.5t-20.5 101.5zM156 1260q0 -41 26.5 -69t67.5 -28q37 0 66.5 28t29.5 69t-29.5 70.5t-66.5 29.5q-41 0 -67.5 -29.5 t-26.5 -70.5z" />
<glyph unicode="&#xb1;" horiz-adv-x="923" d="M72 115q0 47 33.5 80.5t80.5 33.5h553q47 0 80 -33.5t33 -80.5t-34 -81t-81 -34h-551q-47 0 -80.5 34t-33.5 81zM72 604q0 47 33.5 81t80.5 34h160v160q0 47 34 80.5t81 33.5t80.5 -33.5t33.5 -80.5v-160h164q47 0 80 -34t33 -81t-34 -81t-81 -34h-162v-108 q0 -47 -33.5 -80t-80.5 -33t-81 35t-34 82v104h-160q-47 0 -80.5 34t-33.5 81z" />
<glyph unicode="&#xb4;" horiz-adv-x="327" d="M-20 1270q0 51 40 82l173 125q25 18 61 18q39 0 64.5 -26.5t25.5 -59.5q0 -59 -45 -90l-168 -119q-12 -10 -28.5 -16t-30.5 -6q-41 0 -66.5 25.5t-25.5 66.5z" />
<glyph unicode="&#xb5;" horiz-adv-x="489" d="M82 817q0 68 47 116t115 48t116 -48t48 -116t-48.5 -115t-115.5 -47q-68 0 -115 47t-47 115z" />
<glyph unicode="&#xb6;" horiz-adv-x="1052" d="M61 979q0 182 105.5 275.5t310.5 93.5h340q72 0 123 -50.5t51 -121.5v-1076q0 -47 -32.5 -79.5t-79.5 -32.5t-80 32.5t-33 79.5v1096h-94v-1096q0 -47 -33 -79.5t-80 -32.5t-80 32.5t-33 79.5v498q-86 0 -156.5 25.5t-121.5 75t-79 120t-28 160.5z" />
<glyph unicode="&#xb7;" horiz-adv-x="489" d="M82 817q0 68 47 116t115 48t116 -48t48 -116t-48.5 -115t-115.5 -47q-68 0 -115 47t-47 115z" />
<glyph unicode="&#xb8;" horiz-adv-x="372" d="M0 -315q0 31 14.5 53t46.5 22q27 0 51.5 -16t53.5 -16q25 0 36 13t11 30q0 16 -13.5 29.5t-41.5 17.5q-25 2 -43.5 17t-18.5 48q0 16 8 37l31 80h127l-18 -57q61 -16 95 -61.5t34 -110.5q0 -39 -16.5 -74t-44 -61.5t-65.5 -42t-81 -15.5q-18 0 -47 6t-54.5 18.5t-45 33 t-19.5 49.5z" />
<glyph unicode="&#xba;" horiz-adv-x="899" d="M39 967q0 84 32.5 157.5t88 129t130.5 87t159 31.5t158.5 -31.5t131 -87t89 -129t32.5 -157.5t-32.5 -157t-89 -127t-131.5 -86t-158 -32q-84 0 -159 32t-130.5 86t-88 127t-32.5 157zM260 967q0 -43 15.5 -79t42 -61.5t60.5 -40t71 -14.5t70.5 14.5t60 40t42 61.5 t15.5 79t-15.5 78.5t-42 61.5t-60.5 40t-70 14q-37 0 -71 -14t-60.5 -40t-42 -61.5t-15.5 -78.5z" />
<glyph unicode="&#xbb;" horiz-adv-x="815" d="M61 176q0 39 39 78l95 94l-99 101q-14 12 -24.5 33.5t-10.5 41.5q0 41 31 65.5t70 24.5q35 0 67 -32l146 -156q18 -20 25.5 -42t7.5 -40q0 -23 -10.5 -43t-22.5 -33l-148 -155q-16 -16 -34.5 -23.5t-30.5 -7.5q-39 0 -70 24.5t-31 69.5zM408 176q0 39 38 78l95 94 l-99 101q-14 12 -24 33.5t-10 41.5q0 41 30.5 65.5t69.5 24.5q35 0 67 -32l146 -156q18 -20 25.5 -42t7.5 -40q0 -23 -10.5 -43t-22.5 -33l-148 -155q-16 -16 -34.5 -23.5t-30.5 -7.5q-39 0 -69.5 24.5t-30.5 69.5z" />
<glyph unicode="&#xbf;" horiz-adv-x="917" d="M31 29q0 76 23.5 130t59.5 94t77.5 69.5t77.5 55t59.5 52.5t23.5 62q0 47 38 86.5t114 39.5q63 0 107 -44t44 -115q0 -53 -23.5 -91t-57 -67t-74.5 -53.5t-75 -52t-57.5 -62.5t-23.5 -86q0 -49 31 -77.5t92 -28.5q72 0 117 51q23 25 51.5 37t58.5 12q63 0 107.5 -45 t44.5 -105q0 -57 -39 -98q-68 -78 -161 -108.5t-177 -30.5q-106 0 -188 32.5t-137.5 87t-84 121t-28.5 134.5zM340 881q0 70 48 118t116 48q70 0 117 -48t47 -118q0 -68 -47.5 -116t-116.5 -48q-68 0 -116 48t-48 116z" />
<glyph unicode="&#xc0;" horiz-adv-x="1251" d="M20 166q0 33 13 63l434 1024q23 55 62.5 81t93.5 26q49 0 93 -24.5t68 -82.5l433 -1024q12 -31 12 -65q0 -33 -12.5 -63.5t-35 -55.5t-54 -39t-70.5 -14q-51 0 -97.5 27.5t-62.5 80.5l-37 109h-473l-35 -109q-16 -51 -60 -79.5t-97 -28.5q-78 0 -126.5 53t-48.5 121z M440 1661q0 43 32 67.5t63 24.5q29 0 51 -16l180 -131q43 -31 43 -78q0 -37 -23.5 -66.5t-72.5 -29.5q-31 0 -54 16l-174 127q-45 33 -45 86zM475 475h293l-150 438z" />
<glyph unicode="&#xc1;" horiz-adv-x="1251" d="M20 166q0 33 13 63l434 1024q23 55 62.5 81t93.5 26q49 0 93 -24.5t68 -82.5l433 -1024q12 -31 12 -65q0 -33 -12.5 -63.5t-35 -55.5t-54 -39t-70.5 -14q-51 0 -97.5 27.5t-62.5 80.5l-37 109h-473l-35 -109q-16 -51 -60 -79.5t-97 -28.5q-78 0 -126.5 53t-48.5 121z M442 1524q0 51 41 82l172 125q25 18 62 18q39 0 64.5 -26.5t25.5 -59.5q0 -59 -45 -90l-168 -119q-12 -10 -28.5 -16t-30.5 -6q-41 0 -67 25.5t-26 66.5zM475 475h293l-150 438z" />
<glyph unicode="&#xc2;" horiz-adv-x="1251" d="M20 166q0 33 13 63l434 1024q23 55 62.5 81t93.5 26q49 0 93 -24.5t68 -82.5l433 -1024q12 -31 12 -65q0 -33 -12.5 -63.5t-35 -55.5t-54 -39t-70.5 -14q-51 0 -97.5 27.5t-62.5 80.5l-37 109h-473l-35 -109q-16 -51 -60 -79.5t-97 -28.5q-78 0 -126.5 53t-48.5 121z M379 1530q0 12 7 30.5t24 34.5l137 129q12 12 32.5 22.5t43.5 10.5q20 0 40.5 -6t41.5 -27l135 -127q16 -16 24 -34.5t8 -32.5q0 -39 -24.5 -69.5t-65.5 -30.5q-20 0 -40.5 10t-34.5 24l-80 80l-72 -71q-18 -18 -39.5 -30.5t-42.5 -12.5q-45 0 -69.5 30.5t-24.5 69.5z M475 475h293l-150 438z" />
<glyph unicode="&#xc3;" horiz-adv-x="1251" d="M20 166q0 33 13 63l434 1024q23 55 62.5 81t93.5 26q49 0 93 -24.5t68 -82.5l433 -1024q12 -31 12 -65q0 -33 -12.5 -63.5t-35 -55.5t-54 -39t-70.5 -14q-51 0 -97.5 27.5t-62.5 80.5l-37 109h-473l-35 -109q-16 -51 -60 -79.5t-97 -28.5q-78 0 -126.5 53t-48.5 121z M307 1503q0 33 14.5 68t41 61.5t62.5 44t79 17.5t75.5 -14.5t60.5 -31t53.5 -30.5t56.5 -14q18 0 28 14t20.5 30.5t25 31t38.5 14.5q29 0 55.5 -19.5t26.5 -54.5t-14.5 -69.5t-40 -61.5t-61 -43t-78.5 -16t-78 14t-63.5 32.5t-53.5 33t-51 14.5q-23 0 -34 -14.5t-20.5 -33 t-21.5 -32.5t-39 -14q-31 0 -56.5 19t-25.5 54zM475 475h293l-150 438z" />
<glyph unicode="&#xc4;" horiz-adv-x="1251" d="M20 166q0 33 13 63l434 1024q23 55 62.5 81t93.5 26q49 0 93 -24.5t68 -82.5l433 -1024q12 -31 12 -65q0 -33 -12.5 -63.5t-35 -55.5t-54 -39t-70.5 -14q-51 0 -97.5 27.5t-62.5 80.5l-37 109h-473l-35 -109q-16 -51 -60 -79.5t-97 -28.5q-78 0 -126.5 53t-48.5 121z M346 1550q0 47 34 84t87 37q47 0 83 -37t36 -84q0 -53 -36 -86.5t-83 -33.5q-53 0 -87 33.5t-34 86.5zM475 475h293l-150 438zM662 1550q0 47 34.5 84t83.5 37t86 -37t37 -84q0 -53 -37 -86.5t-86 -33.5t-83.5 33.5t-34.5 86.5z" />
<glyph unicode="&#xc5;" horiz-adv-x="1251" d="M20 166q0 33 13 63l434 1024q6 20 18 35q-27 27 -42 63t-15 79q0 86 58.5 141t138.5 55q82 0 139 -55t57 -141q0 -43 -15 -79t-42 -63q6 -8 11 -16t9 -19l433 -1024q12 -31 12 -65q0 -33 -12.5 -63.5t-35 -55.5t-54 -39t-70.5 -14q-51 0 -97.5 27.5t-62.5 80.5l-37 109 h-473l-35 -109q-16 -51 -60 -79.5t-97 -28.5q-78 0 -126.5 53t-48.5 121zM475 475h293l-150 438zM569 1430q0 -25 16.5 -41.5t39.5 -16.5t39 16.5t16 41.5q0 23 -16.5 40t-38.5 17q-23 0 -39.5 -17t-16.5 -40z" />
<glyph unicode="&#xc6;" horiz-adv-x="1542" d="M20 135q0 20 6.5 46t22.5 48l699 1024q37 53 74.5 74t90.5 21h416q63 0 107.5 -44t44.5 -108q0 -63 -44 -107.5t-108 -44.5h-233v-208h196q63 0 107.5 -44t44.5 -106q0 -63 -44 -107t-108 -44h-196v-232h233q63 0 107.5 -44t44.5 -107t-44 -107.5t-108 -44.5h-405 q-72 0 -122 50t-50 122v37h-342l-66 -109q-29 -49 -77 -78.5t-101 -29.5q-68 0 -107 42t-39 101zM573 475h179v291z" />
<glyph unicode="&#xc7;" horiz-adv-x="1239" d="M61 655q0 166 57.5 298t154 225.5t222.5 143.5t265 50q102 0 199.5 -25.5t156.5 -72.5q33 -25 51.5 -56.5t18.5 -66.5q0 -72 -42 -114t-100 -42q-18 0 -36.5 5.5t-38.5 15.5q-41 16 -89.5 35.5t-117.5 19.5q-90 0 -158.5 -35t-116 -93t-72 -133t-24.5 -153t25.5 -147.5 t75 -122.5t119 -85t155.5 -32q76 0 123 19.5t84 36.5q41 20 74 20q63 0 102 -43t39 -113q0 -68 -55 -118q-47 -43 -124 -67.5t-173 -33.5l-9 -28q61 -16 95 -61.5t34 -110.5q0 -39 -16 -74t-44 -61.5t-65.5 -42t-80.5 -15.5q-18 0 -47 6t-54.5 18.5t-45 33t-19.5 49.5 q0 31 14 53t47 22q27 0 51.5 -16t53.5 -16q25 0 36 13t11 30q0 16 -13.5 29.5t-42.5 17.5q-25 2 -43 17t-18 48q0 16 8 37l19 51q-145 12 -265 73.5t-204 156t-130.5 212t-46.5 242.5z" />
<glyph unicode="&#xc8;" horiz-adv-x="954" d="M123 172v1004q0 72 50 122t122 50h446q63 0 107.5 -44t44.5 -108q0 -63 -44 -107.5t-108 -44.5h-274v-208h238q63 0 107 -44t44 -106q0 -63 -44 -107t-107 -44h-238v-232h274q63 0 107.5 -44t44.5 -107t-44 -107.5t-108 -44.5h-446q-72 0 -122 50t-50 122zM291 1661 q0 43 31.5 67.5t62.5 24.5q29 0 51 -16l180 -131q43 -31 43 -78q0 -37 -23.5 -66.5t-72.5 -29.5q-31 0 -53 16l-174 127q-45 33 -45 86z" />
<glyph unicode="&#xc9;" horiz-adv-x="954" d="M123 172v1004q0 72 50 122t122 50h446q63 0 107.5 -44t44.5 -108q0 -63 -44 -107.5t-108 -44.5h-274v-208h238q63 0 107 -44t44 -106q0 -63 -44 -107t-107 -44h-238v-232h274q63 0 107.5 -44t44.5 -107t-44 -107.5t-108 -44.5h-446q-72 0 -122 50t-50 122zM356 1522 q0 51 41 82l172 125q25 18 62 18q39 0 64.5 -26.5t25.5 -59.5q0 -59 -45 -90l-168 -119q-12 -10 -28.5 -16t-30.5 -6q-41 0 -67 25.5t-26 66.5z" />
<glyph unicode="&#xca;" horiz-adv-x="954" d="M123 172v1004q0 72 50 122t122 50h446q63 0 107.5 -44t44.5 -108q0 -63 -44 -107.5t-108 -44.5h-274v-208h238q63 0 107 -44t44 -106q0 -63 -44 -107t-107 -44h-238v-232h274q63 0 107.5 -44t44.5 -107t-44 -107.5t-108 -44.5h-446q-72 0 -122 50t-50 122zM274 1532 q0 12 7.5 30.5t23.5 34.5l137 129q12 12 33 22.5t43 10.5q20 0 41 -6t41 -27l135 -127q16 -16 24.5 -34.5t8.5 -32.5q0 -39 -24.5 -69.5t-65.5 -30.5q-20 0 -41 10t-35 24l-80 80l-71 -71q-18 -18 -40 -30.5t-42 -12.5q-45 0 -70 30.5t-25 69.5z" />
<glyph unicode="&#xcb;" horiz-adv-x="954" d="M123 172v1004q0 72 50 122t122 50h446q63 0 107.5 -44t44.5 -108q0 -63 -44 -107.5t-108 -44.5h-274v-208h238q63 0 107 -44t44 -106q0 -63 -44 -107t-107 -44h-238v-232h274q63 0 107.5 -44t44.5 -107t-44 -107.5t-108 -44.5h-446q-72 0 -122 50t-50 122zM244 1552 q0 47 33.5 84t87.5 37q47 0 82.5 -37t35.5 -84q0 -53 -35.5 -86.5t-82.5 -33.5q-53 0 -87 33.5t-34 86.5zM559 1552q0 47 35 84t84 37t86 -37t37 -84q0 -53 -37 -86.5t-86 -33.5t-84 33.5t-35 86.5z" />
<glyph unicode="&#xcc;" horiz-adv-x="731" d="M31 135q0 57 40 97t95 40h37v803h-37q-55 0 -95 40t-40 95q0 57 40 97.5t95 40.5h399q57 0 96 -40t39 -98q0 -55 -39.5 -95t-97.5 -40h-16v-803h18q57 0 96 -39.5t39 -97.5q0 -55 -39.5 -95t-97.5 -40h-397q-55 0 -95 40t-40 95zM180 1661q0 43 32 67.5t62 24.5 q29 0 52 -16l180 -131q43 -31 43 -78q0 -37 -23.5 -66.5t-72.5 -29.5q-31 0 -54 16l-174 127q-45 33 -45 86z" />
<glyph unicode="&#xcd;" horiz-adv-x="731" d="M31 135q0 57 40 97t95 40h37v803h-37q-55 0 -95 40t-40 95q0 57 40 97.5t95 40.5h399q57 0 96 -40t39 -98q0 -55 -39.5 -95t-97.5 -40h-16v-803h18q57 0 96 -39.5t39 -97.5q0 -55 -39.5 -95t-97.5 -40h-397q-55 0 -95 40t-40 95zM217 1524q0 51 41 82l172 125 q25 18 62 18q39 0 64.5 -26.5t25.5 -59.5q0 -59 -45 -90l-168 -119q-12 -10 -28.5 -16t-31.5 -6q-41 0 -66.5 25.5t-25.5 66.5z" />
<glyph unicode="&#xce;" horiz-adv-x="731" d="M31 135q0 57 40 97t95 40h37v803h-37q-55 0 -95 40t-40 95q0 57 40 97.5t95 40.5h399q57 0 96 -40t39 -98q0 -55 -39.5 -95t-97.5 -40h-16v-803h18q57 0 96 -39.5t39 -97.5q0 -55 -39.5 -95t-97.5 -40h-397q-55 0 -95 40t-40 95zM119 1528q0 12 7 30.5t24 34.5l137 129 q12 12 32.5 22.5t42.5 10.5q20 0 41 -6t41 -27l136 -127q16 -16 24 -34.5t8 -32.5q0 -39 -24.5 -70t-65.5 -31q-20 0 -40.5 10.5t-35.5 24.5l-79 80l-72 -72q-18 -18 -40 -30.5t-42 -12.5q-45 0 -69.5 31t-24.5 70z" />
<glyph unicode="&#xcf;" horiz-adv-x="731" d="M31 135q0 57 40 97t95 40h37v803h-37q-55 0 -95 40t-40 95q0 57 40 97.5t95 40.5h399q57 0 96 -40t39 -98q0 -55 -39.5 -95t-97.5 -40h-16v-803h18q57 0 96 -39.5t39 -97.5q0 -55 -39.5 -95t-97.5 -40h-397q-55 0 -95 40t-40 95zM86 1550q0 47 34 84t87 37q47 0 83 -37 t36 -84q0 -53 -36 -86.5t-83 -33.5q-53 0 -87 33.5t-34 86.5zM401 1550q0 47 35 84t84 37t86 -37t37 -84q0 -53 -37 -86.5t-86 -33.5t-84 33.5t-35 86.5z" />
<glyph unicode="&#xd1;" horiz-adv-x="1429" d="M123 156v1030q0 72 48 122t120 50q43 0 79 -20.5t62 -53.5l547 -706v616q0 68 47 116t117 48q68 0 116 -48t48 -116v-1032q0 -72 -48.5 -122t-119.5 -50q-45 0 -80 20.5t-62 52.5l-544 699v-606q0 -68 -48.5 -116t-117.5 -48q-68 0 -116 48t-48 116zM395 1503 q0 33 14.5 68t41 61.5t62.5 44t79 17.5t75.5 -14.5t60.5 -31t53.5 -30.5t56.5 -14q18 0 28.5 14t20.5 30.5t24.5 31t38.5 14.5q29 0 55.5 -19.5t26.5 -54.5t-14 -69.5t-40 -61.5t-61.5 -43t-78.5 -16t-78 14t-63.5 32.5t-53.5 33t-51 14.5q-23 0 -34 -14.5t-20.5 -33 t-21.5 -32.5t-39 -14q-31 0 -56.5 19t-25.5 54z" />
<glyph unicode="&#xd2;" d="M61 674q0 143 55.5 271t149.5 222.5t221 149.5t273 55q143 0 271 -55t222.5 -149.5t149.5 -222.5t55 -271q0 -145 -55 -273.5t-149.5 -224.5t-222.5 -151.5t-271 -55.5q-145 0 -272.5 55.5t-221.5 151.5t-149.5 224.5t-55.5 273.5zM393 674q0 -80 28 -151.5t76 -125 t115.5 -85t147.5 -31.5t147.5 31.5t115.5 85t75.5 125t27.5 151.5t-27.5 150.5t-75.5 122.5t-115.5 83t-147.5 31t-147.5 -31t-115.5 -83t-76 -122.5t-28 -150.5zM575 1661q0 43 32 67.5t63 24.5q29 0 51 -16l180 -131q43 -31 43 -78q0 -37 -23.5 -66.5t-72.5 -29.5 q-31 0 -53 16l-174 127q-45 33 -46 86z" />
<glyph unicode="&#xd3;" d="M61 674q0 143 55.5 271t149.5 222.5t221 149.5t273 55q143 0 271 -55t222.5 -149.5t149.5 -222.5t55 -271q0 -145 -55 -273.5t-149.5 -224.5t-222.5 -151.5t-271 -55.5q-145 0 -272.5 55.5t-221.5 151.5t-149.5 224.5t-55.5 273.5zM393 674q0 -80 28 -151.5t76 -125 t115.5 -85t147.5 -31.5t147.5 31.5t115.5 85t75.5 125t27.5 151.5t-27.5 150.5t-75.5 122.5t-115.5 83t-147.5 31t-147.5 -31t-115.5 -83t-76 -122.5t-28 -150.5zM578 1520q0 51 40 82l173 124q25 18 61 19q39 0 64.5 -26.5t25.5 -59.5q0 -59 -45 -90l-168 -119 q-12 -10 -28.5 -16.5t-30.5 -6.5q-41 0 -66.5 26t-25.5 67z" />
<glyph unicode="&#xd4;" d="M61 674q0 143 55.5 271t149.5 222.5t221 149.5t273 55q143 0 271 -55t222.5 -149.5t149.5 -222.5t55 -271q0 -145 -55 -273.5t-149.5 -224.5t-222.5 -151.5t-271 -55.5q-145 0 -272.5 55.5t-221.5 151.5t-149.5 224.5t-55.5 273.5zM393 674q0 -80 28 -151.5t76 -125 t115.5 -85t147.5 -31.5t147.5 31.5t115.5 85t75.5 125t27.5 151.5t-27.5 150.5t-75.5 122.5t-115.5 83t-147.5 31t-147.5 -31t-115.5 -83t-76 -122.5t-28 -150.5zM512 1532q0 12 7 30.5t24 34.5l137 129q12 12 32.5 22.5t43.5 10.5q20 0 40.5 -6t41.5 -27l135 -127 q16 -16 24.5 -34.5t8.5 -32.5q0 -39 -25 -69.5t-66 -30.5q-20 0 -40.5 10t-34.5 24l-80 80l-72 -71q-18 -18 -39.5 -30.5t-42.5 -12.5q-45 0 -69.5 30.5t-24.5 69.5z" />
<glyph unicode="&#xd5;" d="M61 674q0 143 55.5 271t149.5 222.5t221 149.5t273 55q143 0 271 -55t222.5 -149.5t149.5 -222.5t55 -271q0 -145 -55 -273.5t-149.5 -224.5t-222.5 -151.5t-271 -55.5q-145 0 -272.5 55.5t-221.5 151.5t-149.5 224.5t-55.5 273.5zM393 674q0 -80 28 -151.5t76 -125 t115.5 -85t147.5 -31.5t147.5 31.5t115.5 85t75.5 125t27.5 151.5t-27.5 150.5t-75.5 122.5t-115.5 83t-147.5 31t-147.5 -31t-115.5 -83t-76 -122.5t-28 -150.5zM440 1505q0 33 14.5 68t41 61.5t62.5 44t79 17.5t75.5 -14.5t60.5 -31t53.5 -30.5t56.5 -14q18 0 28.5 14 t20.5 30.5t24.5 31t38.5 14.5q29 0 55.5 -19.5t26.5 -54.5t-14 -69.5t-40 -61.5t-61.5 -43t-78.5 -16t-78 14t-63.5 32.5t-53 33t-51.5 14.5q-23 0 -34 -14.5t-20.5 -33t-21.5 -32.5t-39 -14q-31 0 -56.5 19t-25.5 54z" />
<glyph unicode="&#xd6;" d="M61 674q0 143 55.5 271t149.5 222.5t221 149.5t273 55q143 0 271 -55t222.5 -149.5t149.5 -222.5t55 -271q0 -145 -55 -273.5t-149.5 -224.5t-222.5 -151.5t-271 -55.5q-145 0 -272.5 55.5t-221.5 151.5t-149.5 224.5t-55.5 273.5zM393 674q0 -80 28 -151.5t76 -125 t115.5 -85t147.5 -31.5t147.5 31.5t115.5 85t75.5 125t27.5 151.5t-27.5 150.5t-75.5 122.5t-115.5 83t-147.5 31t-147.5 -31t-115.5 -83t-76 -122.5t-28 -150.5zM481 1552q0 47 34 84t87 37q47 0 83 -37t36 -84q0 -53 -36 -86.5t-83 -33.5q-53 0 -87 33.5t-34 86.5z M797 1552q0 47 34.5 84t83.5 37t86 -37t37 -84q0 -53 -36.5 -86.5t-86.5 -33.5q-49 0 -83.5 33.5t-34.5 86.5z" />
<glyph unicode="&#xd7;" horiz-adv-x="923" d="M149.5 304q0.5 46 34.5 81l115 115l-113 112q-35 35 -34.5 81t34.5 81q35 35 81 35t81 -35l113 -112l114 114q35 35 81 35t81 -35t35 -81t-35 -81l-114 -114l116 -117q35 -33 34 -79t-36 -81t-81 -35t-81 35l-114 115l-117 -117q-33 -35 -79 -34t-81 36t-34.5 81z" />
<glyph unicode="&#xd8;" d="M59 166q0 35 12.5 66.5t41.5 56.5l39 37q-43 78 -67 165t-24 183q0 143 55.5 271t149.5 222.5t221 149.5t273 55q102 0 195.5 -27.5t174.5 -78.5l41 39q23 23 52.5 34t60.5 11q70 0 119 -50.5t49 -117.5q0 -35 -13.5 -67t-39.5 -56l-37 -35q47 -78 71.5 -166t24.5 -184 q0 -145 -55 -273.5t-149.5 -224.5t-222.5 -151.5t-271 -55.5q-104 0 -200.5 30t-178.5 83l-41 -39q-23 -23 -53.5 -33t-59.5 -10q-68 0 -118 48t-50 118zM393 674q0 -80 28 -151.5t76 -125t115.5 -85t147.5 -31.5t147.5 31.5t115.5 85t75.5 125t27.5 151.5t-27.5 150.5 t-75.5 122.5t-115.5 83t-147.5 31t-147.5 -31t-115.5 -83t-76 -122.5t-28 -150.5z" />
<glyph unicode="&#xd9;" horiz-adv-x="1374" d="M123 532v654q0 72 50 122t122 50t122 -50.5t50 -121.5v-666q0 -47 17.5 -87t46 -68.5t68.5 -46t87 -17.5q45 0 86 17.5t70.5 46t47 68.5t17.5 87v666q0 72 50.5 122t121.5 50q37 0 68 -13.5t54.5 -37t36.5 -55t13 -66.5v-654q0 -117 -45 -219t-121.5 -179t-179 -121 t-219.5 -44t-219 44t-179 121t-121 179.5t-44 218.5zM502 1661q0 43 31.5 67.5t62.5 24.5q29 0 51 -16l180 -131q43 -31 43 -78q0 -37 -23.5 -66.5t-72.5 -29.5q-31 0 -53 16l-174 127q-45 33 -45 86z" />
<glyph unicode="&#xda;" horiz-adv-x="1374" d="M123 532v654q0 72 50 122t122 50t122 -50.5t50 -121.5v-666q0 -47 17.5 -87t46 -68.5t68.5 -46t87 -17.5q45 0 86 17.5t70.5 46t47 68.5t17.5 87v666q0 72 50.5 122t121.5 50q37 0 68 -13.5t54.5 -37t36.5 -55t13 -66.5v-654q0 -117 -45 -219t-121.5 -179t-179 -121 t-219.5 -44t-219 44t-179 121t-121 179.5t-44 218.5zM504 1522q0 51 41 82l172 125q25 18 61 18q39 0 64.5 -26.5t25.5 -59.5q0 -59 -45 -90l-168 -119q-12 -10 -28.5 -16t-30.5 -6q-41 0 -66.5 25.5t-25.5 66.5z" />
<glyph unicode="&#xdb;" horiz-adv-x="1374" d="M123 532v654q0 72 50 122t122 50t122 -50.5t50 -121.5v-666q0 -47 17.5 -87t46 -68.5t68.5 -46t87 -17.5q45 0 86 17.5t70.5 46t47 68.5t17.5 87v666q0 72 50.5 122t121.5 50q37 0 68 -13.5t54.5 -37t36.5 -55t13 -66.5v-654q0 -117 -45 -219t-121.5 -179t-179 -121 t-219.5 -44t-219 44t-179 121t-121 179.5t-44 218.5zM440 1526q0 12 7.5 30.5t23.5 34.5l137 129q12 12 33 22.5t43 10.5q20 0 40.5 -6t41.5 -27l135 -127q16 -16 24.5 -34.5t8.5 -32.5q0 -39 -24.5 -70t-65.5 -31q-20 0 -41 10.5t-35 24.5l-80 80l-72 -72 q-18 -18 -39.5 -30.5t-41.5 -12.5q-45 0 -70 31t-25 70z" />
<glyph unicode="&#xdc;" horiz-adv-x="1374" d="M123 532v654q0 72 50 122t122 50t122 -50.5t50 -121.5v-666q0 -47 17.5 -87t46 -68.5t68.5 -46t87 -17.5q45 0 86 17.5t70.5 46t47 68.5t17.5 87v666q0 72 50.5 122t121.5 50q37 0 68 -13.5t54.5 -37t36.5 -55t13 -66.5v-654q0 -117 -45 -219t-121.5 -179t-179 -121 t-219.5 -44t-219 44t-179 121t-121 179.5t-44 218.5zM408 1550q0 47 33.5 84t86.5 37q47 0 83 -37t36 -84q0 -53 -36 -86.5t-83 -33.5q-53 0 -86.5 33.5t-33.5 86.5zM723 1550q0 47 35 84t84 37t86 -37t37 -84q0 -53 -37 -86.5t-86 -33.5t-84 33.5t-35 86.5z" />
<glyph unicode="&#xdd;" horiz-adv-x="1067" d="M20 1194q0 33 12.5 62.5t34 52t51 37t66.5 14.5q49 0 81 -19.5t54 -54.5l213 -325l213 325q23 35 56 54.5t82 19.5q35 0 65.5 -14.5t52 -37t34 -52t12.5 -60.5q0 -47 -29 -92l-311 -457v-485q0 -72 -50.5 -122t-121.5 -50q-37 0 -68 13t-54.5 36.5t-37 55.5t-13.5 67v481 l-315 461q-27 39 -27 90zM350 1522q0 51 41 82l172 125q25 18 62 18q39 0 64.5 -26.5t25.5 -59.5q0 -59 -45 -90l-168 -119q-12 -10 -28.5 -16t-31.5 -6q-41 0 -66.5 25.5t-25.5 66.5z" />
<glyph unicode="&#xdf;" horiz-adv-x="1239" d="M20 879q0 53 39 92t93 39v67q0 88 27.5 168t82.5 139.5t141 95.5t203 36q84 0 156 -26t123 -75t79.5 -119.5t28.5 -160.5q0 -84 -28.5 -131.5t-64.5 -81t-64.5 -63.5t-28.5 -79q0 -43 28.5 -73.5t70.5 -57t91.5 -55.5t91 -68t70.5 -93t29 -134q0 -170 -97.5 -250 t-254.5 -80q-70 0 -126.5 19.5t-96.5 52.5t-62.5 72t-22.5 80q0 55 23.5 89.5t71.5 34.5q29 0 47 -16t37.5 -34.5t43 -35t62.5 -16.5q53 0 73.5 24.5t20.5 53.5q0 43 -27.5 74.5t-67.5 60.5t-88 58.5t-88 67.5t-67.5 88t-27.5 122q0 59 15 97t36.5 64.5t48.5 46t48.5 41 t36.5 50.5t15 74q0 53 -36.5 85.5t-108.5 32.5t-107.5 -52t-35.5 -132v-930q0 -63 -44 -107t-108 -44q-63 0 -106 44t-43 107v607q-53 0 -92.5 38.5t-39.5 92.5z" />
<glyph unicode="&#xe0;" horiz-adv-x="1228" d="M51 510q0 92 33 187.5t100.5 173t170 127t239.5 49.5q111 0 208 -42t168.5 -116t113.5 -172.5t42 -208.5v-393q0 -61 -33.5 -106.5t-97.5 -45.5q-18 0 -40.5 7t-41 20.5t-31 34t-12.5 49.5q-49 -51 -116.5 -78t-159.5 -27q-137 0 -239.5 49.5t-170 127t-100.5 174 t-33 190.5zM352 506q0 -55 19.5 -101.5t52.5 -80t77 -53t93 -19.5t93 19.5t78 53t53.5 81t19.5 102.5t-19.5 102t-53.5 82t-78 54.5t-93 19.5t-93 -19.5t-77 -54.5t-52.5 -83t-19.5 -103zM430 1407q0 43 32 67.5t62 24.5q29 0 51 -16l181 -131q43 -31 43 -78 q0 -37 -23.5 -66.5t-73.5 -29.5q-31 0 -53 16l-174 127q-45 33 -45 86z" />
<glyph unicode="&#xe1;" horiz-adv-x="1228" d="M51 510q0 92 33 187.5t100.5 173t170 127t239.5 49.5q111 0 208 -42t168.5 -116t113.5 -172.5t42 -208.5v-393q0 -61 -33.5 -106.5t-97.5 -45.5q-18 0 -40.5 7t-41 20.5t-31 34t-12.5 49.5q-49 -51 -116.5 -78t-159.5 -27q-137 0 -239.5 49.5t-170 127t-100.5 174 t-33 190.5zM352 506q0 -55 19.5 -101.5t52.5 -80t77 -53t93 -19.5t93 19.5t78 53t53.5 81t19.5 102.5t-19.5 102t-53.5 82t-78 54.5t-93 19.5t-93 -19.5t-77 -54.5t-52.5 -83t-19.5 -103zM432 1270q0 51 41 82l172 125q25 18 62 18q39 0 64.5 -26.5t25.5 -59.5 q0 -59 -45 -90l-168 -119q-12 -10 -28.5 -16t-31.5 -6q-41 0 -66.5 25.5t-25.5 66.5z" />
<glyph unicode="&#xe2;" horiz-adv-x="1228" d="M51 510q0 92 33 187.5t100.5 173t170 127t239.5 49.5q111 0 208 -42t168.5 -116t113.5 -172.5t42 -208.5v-393q0 -61 -33.5 -106.5t-97.5 -45.5q-18 0 -40.5 7t-41 20.5t-31 34t-12.5 49.5q-49 -51 -116.5 -78t-159.5 -27q-137 0 -239.5 49.5t-170 127t-100.5 174 t-33 190.5zM352 506q0 -55 19.5 -101.5t52.5 -80t77 -53t93 -19.5t93 19.5t78 53t53.5 81t19.5 102.5t-19.5 102t-53.5 82t-78 54.5t-93 19.5t-93 -19.5t-77 -54.5t-52.5 -83t-19.5 -103zM367 1278q0 12 7 30.5t23 34.5l138 130q12 12 32.5 22t42.5 10q20 0 41 -6t41 -26 l135 -127q16 -16 24.5 -35t8.5 -33q0 -39 -24.5 -69.5t-65.5 -30.5q-20 0 -40.5 10t-35.5 24l-80 80l-71 -71q-18 -18 -40 -30.5t-42 -12.5q-45 0 -69.5 30.5t-24.5 69.5z" />
<glyph unicode="&#xe3;" horiz-adv-x="1228" d="M51 510q0 92 33 187.5t100.5 173t170 127t239.5 49.5q111 0 208 -42t168.5 -116t113.5 -172.5t42 -208.5v-393q0 -61 -33.5 -106.5t-97.5 -45.5q-18 0 -40.5 7t-41 20.5t-31 34t-12.5 49.5q-49 -51 -116.5 -78t-159.5 -27q-137 0 -239.5 49.5t-170 127t-100.5 174 t-33 190.5zM295 1249q0 33 14.5 68t41 61.5t62.5 44t79 17.5t75.5 -14.5t60 -31t53.5 -30.5t56 -14q18 0 28.5 14t21 30.5t24.5 31t39 14.5q29 0 55.5 -19.5t26.5 -54.5t-14.5 -69.5t-40 -61.5t-61.5 -43t-79 -16t-77.5 14t-63.5 32.5t-53.5 33t-50.5 14.5 q-23 0 -34.5 -14.5t-20.5 -33t-21.5 -32.5t-38.5 -14q-31 0 -56.5 19t-25.5 54zM352 506q0 -55 19.5 -101.5t52.5 -80t77 -53t93 -19.5t93 19.5t78 53t53.5 81t19.5 102.5t-19.5 102t-53.5 82t-78 54.5t-93 19.5t-93 -19.5t-77 -54.5t-52.5 -83t-19.5 -103z" />
<glyph unicode="&#xe4;" horiz-adv-x="1228" d="M51 510q0 92 33 187.5t100.5 173t170 127t239.5 49.5q111 0 208 -42t168.5 -116t113.5 -172.5t42 -208.5v-393q0 -61 -33.5 -106.5t-97.5 -45.5q-18 0 -40.5 7t-41 20.5t-31 34t-12.5 49.5q-49 -51 -116.5 -78t-159.5 -27q-137 0 -239.5 49.5t-170 127t-100.5 174 t-33 190.5zM336 1300q0 47 33.5 84t87.5 37q47 0 82.5 -36.5t35.5 -84.5q0 -53 -35.5 -86.5t-82.5 -33.5q-53 0 -87 33.5t-34 86.5zM352 506q0 -55 19.5 -101.5t52.5 -80t77 -53t93 -19.5t93 19.5t78 53t53.5 81t19.5 102.5t-19.5 102t-53.5 82t-78 54.5t-93 19.5t-93 -19.5 t-77 -54.5t-52.5 -83t-19.5 -103zM651 1300q0 47 35 84t84 37t86 -36.5t37 -84.5q0 -53 -37 -86.5t-86 -33.5t-84 33.5t-35 86.5z" />
<glyph unicode="&#xe5;" horiz-adv-x="1228" d="M51 510q0 92 33 187.5t100.5 173t170 127t239.5 49.5q111 0 208 -42t168.5 -116t113.5 -172.5t42 -208.5v-393q0 -61 -33.5 -106.5t-97.5 -45.5q-18 0 -40.5 7t-41 20.5t-31 34t-12.5 49.5q-49 -51 -116.5 -78t-159.5 -27q-137 0 -239.5 49.5t-170 127t-100.5 174 t-33 190.5zM352 506q0 -55 19.5 -101.5t52.5 -80t77 -53t93 -19.5t93 19.5t78 53t53.5 81t19.5 102.5t-19.5 102t-53.5 82t-78 54.5t-93 19.5t-93 -19.5t-77 -54.5t-52.5 -83t-19.5 -103zM418 1315q0 86 58.5 141t137.5 55q82 0 139.5 -55t57.5 -141t-57.5 -142.5 t-139.5 -56.5q-80 0 -138 56.5t-58 142.5zM559 1315q0 -25 16.5 -41.5t38.5 -16.5q23 0 39.5 16.5t16.5 41.5q0 23 -16.5 40t-39.5 17t-39 -17t-16 -40z" />
<glyph unicode="&#xe6;" horiz-adv-x="1906" d="M51 319q0 57 22.5 112.5t71 97.5t121 68t174.5 26h371q-23 84 -92.5 131t-179.5 47q-86 0 -138.5 -17.5t-87.5 -42.5q-27 -20 -52 -32.5t-54 -12.5q-53 0 -82 34t-29 87q0 39 34 80t93.5 74t139 54.5t172.5 21.5q125 0 230 -43t183 -117q68 72 164 116t219 44 q135 0 234.5 -46.5t165 -121t98.5 -170t33 -195.5q0 -47 -33 -73.5t-80 -26.5h-647q23 -84 92.5 -141.5t179.5 -57.5q86 0 138.5 17.5t86.5 41.5q27 20 52.5 32.5t54.5 12.5q53 0 82 -33.5t29 -86.5q0 -39 -34 -80t-93.5 -74t-139.5 -54.5t-172 -21.5q-135 0 -246.5 48.5 t-189.5 132.5q-43 -41 -85 -74t-94 -56.5t-116.5 -37t-152.5 -13.5q-92 0 -172 28t-140.5 75t-95.5 111.5t-35 135.5zM350 328q0 -39 39 -72t119 -33t133 17.5t88 44t52.5 60.5t23.5 69h-303q-82 0 -117 -26t-35 -60zM1112 623h447q-6 27 -21.5 56.5t-41.5 55t-65.5 42 t-97.5 16.5q-49 0 -88 -16.5t-65.5 -42t-44 -55.5t-23.5 -56z" />
<glyph unicode="&#xe7;" horiz-adv-x="1062" d="M51 510q0 111 41 209t112.5 171t169 115t212.5 42q111 0 206 -38t169 -106q23 -20 31.5 -46t8.5 -52q0 -57 -34.5 -98t-81.5 -41q-37 0 -63.5 18t-56.5 42t-69 42t-100 18q-117 0 -182.5 -78.5t-65.5 -199.5q0 -119 65.5 -198t182.5 -79q57 0 96 18.5t70 42t58.5 42 t62.5 18.5q47 0 82.5 -42t35.5 -99t-40 -98q-59 -55 -134 -92t-165 -48l-11 -30q61 -16 95 -61.5t34 -110.5q0 -39 -16 -74t-44 -61.5t-66 -42t-81 -15.5q-18 0 -46.5 6t-54.5 18.5t-45 33t-19 49.5q0 31 14 53t47 22q27 0 51.5 -16t52.5 -16q25 0 36.5 13t11.5 30 q0 16 -13.5 29.5t-42.5 17.5q-25 2 -43 17t-18 48q0 16 8 37l20 53q-104 10 -192 55.5t-152.5 118t-100.5 166t-36 197.5z" />
<glyph unicode="&#xe8;" horiz-adv-x="1153" d="M51 506q0 104 36 202.5t103.5 173t166 120t223.5 45.5q135 0 234 -46.5t164.5 -121t98.5 -170t33 -195.5q0 -47 -33 -73.5t-80 -26.5h-647q23 -84 92.5 -141.5t180.5 -57.5q86 0 138 17.5t87 41.5q27 20 52.5 32.5t53.5 12.5q53 0 82 -33.5t29 -86.5q0 -39 -34 -80 t-93 -74t-139 -54.5t-172 -21.5q-123 0 -228.5 42t-182.5 114t-121 170t-44 211zM360 623h447q-6 27 -21.5 56.5t-41 55t-65.5 42t-97 16.5q-49 0 -88 -16.5t-66 -42t-44 -55.5t-24 -56zM391 1407q0 43 32 67.5t62 24.5q29 0 52 -16l180 -131q43 -31 43 -78 q0 -37 -23.5 -66.5t-72.5 -29.5q-31 0 -54 16l-174 127q-45 33 -45 86z" />
<glyph unicode="&#xe9;" horiz-adv-x="1153" d="M51 506q0 104 36 202.5t103.5 173t166 120t223.5 45.5q135 0 234 -46.5t164.5 -121t98.5 -170t33 -195.5q0 -47 -33 -73.5t-80 -26.5h-647q23 -84 92.5 -141.5t180.5 -57.5q86 0 138 17.5t87 41.5q27 20 52.5 32.5t53.5 12.5q53 0 82 -33.5t29 -86.5q0 -39 -34 -80 t-93 -74t-139 -54.5t-172 -21.5q-123 0 -228.5 42t-182.5 114t-121 170t-44 211zM360 623h447q-6 27 -21.5 56.5t-41 55t-65.5 42t-97 16.5q-49 0 -88 -16.5t-66 -42t-44 -55.5t-24 -56zM393 1270q0 51 41 82l172 125q25 18 62 18q39 0 64.5 -26.5t25.5 -59.5q0 -59 -45 -90 l-168 -119q-12 -10 -28.5 -16t-31.5 -6q-41 0 -66.5 25.5t-25.5 66.5z" />
<glyph unicode="&#xea;" horiz-adv-x="1153" d="M51 506q0 104 36 202.5t103.5 173t166 120t223.5 45.5q135 0 234 -46.5t164.5 -121t98.5 -170t33 -195.5q0 -47 -33 -73.5t-80 -26.5h-647q23 -84 92.5 -141.5t180.5 -57.5q86 0 138 17.5t87 41.5q27 20 52.5 32.5t53.5 12.5q53 0 82 -33.5t29 -86.5q0 -39 -34 -80 t-93 -74t-139 -54.5t-172 -21.5q-123 0 -228.5 42t-182.5 114t-121 170t-44 211zM330 1278q0 12 7 30.5t23 34.5l138 130q12 12 32.5 22t42.5 10q20 0 41 -6t41 -26l136 -127q16 -16 24 -35t8 -33q0 -39 -24.5 -69.5t-65.5 -30.5q-20 0 -40.5 10t-35.5 24l-79 80l-72 -71 q-18 -18 -40 -30.5t-42 -12.5q-45 0 -69.5 30.5t-24.5 69.5zM360 623h447q-6 27 -21.5 56.5t-41 55t-65.5 42t-97 16.5q-49 0 -88 -16.5t-66 -42t-44 -55.5t-24 -56z" />
<glyph unicode="&#xeb;" horiz-adv-x="1153" d="M51 506q0 104 36 202.5t103.5 173t166 120t223.5 45.5q135 0 234 -46.5t164.5 -121t98.5 -170t33 -195.5q0 -47 -33 -73.5t-80 -26.5h-647q23 -84 92.5 -141.5t180.5 -57.5q86 0 138 17.5t87 41.5q27 20 52.5 32.5t53.5 12.5q53 0 82 -33.5t29 -86.5q0 -39 -34 -80 t-93 -74t-139 -54.5t-172 -21.5q-123 0 -228.5 42t-182.5 114t-121 170t-44 211zM297 1300q0 47 34 84t87 37q47 0 83 -36.5t36 -84.5q0 -53 -36 -86.5t-83 -33.5q-53 0 -87 33.5t-34 86.5zM360 623h447q-6 27 -21.5 56.5t-41 55t-65.5 42t-97 16.5q-49 0 -88 -16.5t-66 -42 t-44 -55.5t-24 -56zM612 1300q0 47 35 84t84 37t86 -36.5t37 -84.5q0 -53 -37 -86.5t-86 -33.5t-84 33.5t-35 86.5z" />
<glyph unicode="&#xec;" horiz-adv-x="505" d="M68 1407q0 43 31.5 67.5t62.5 24.5q29 0 51 -16l180 -131q43 -31 43 -78q0 -37 -23.5 -66.5t-72.5 -29.5q-31 0 -53 16l-174 127q-45 33 -45 86zM102 141v740q0 63 43 107t107 44q63 0 107 -44t44 -107v-740q0 -63 -44 -107t-107 -44t-106.5 44t-43.5 107z" />
<glyph unicode="&#xed;" horiz-adv-x="505" d="M70 1270q0 51 41 82l172 125q25 18 61 18q39 0 64.5 -26.5t25.5 -59.5q0 -59 -45 -90l-168 -119q-12 -10 -28.5 -16t-30.5 -6q-41 0 -66.5 25.5t-25.5 66.5zM102 141v740q0 63 43 107t107 44q63 0 107 -44t44 -107v-740q0 -63 -44 -107t-107 -44t-106.5 44t-43.5 107z " />
<glyph unicode="&#xee;" horiz-adv-x="505" d="M6 1278q0 12 7 30.5t24 34.5l137 130q12 12 32.5 22t43.5 10q20 0 40.5 -6t41.5 -26l135 -127q16 -16 24.5 -35t8.5 -33q0 -39 -24.5 -69.5t-65.5 -30.5q-20 0 -41 10t-35 24l-80 80l-72 -71q-18 -18 -39.5 -30.5t-42.5 -12.5q-45 0 -69.5 30.5t-24.5 69.5zM102 141v740 q0 63 43 107t107 44q63 0 107 -44t44 -107v-740q0 -63 -44 -107t-107 -44t-106.5 44t-43.5 107z" />
<glyph unicode="&#xef;" horiz-adv-x="505" d="M-25 1300q0 47 34 84t87 37q47 0 83 -36.5t36 -84.5q0 -53 -36 -86.5t-83 -33.5q-53 0 -87 33.5t-34 86.5zM102 141v740q0 63 43 107t107 44q63 0 107 -44t44 -107v-740q0 -63 -44 -107t-107 -44t-106.5 44t-43.5 107zM291 1300q0 47 34.5 84t84.5 37q49 0 85.5 -36.5 t36.5 -84.5q0 -53 -36.5 -86.5t-85.5 -33.5t-84 33.5t-35 86.5z" />
<glyph unicode="&#xf1;" horiz-adv-x="1130" d="M102 139v441q0 92 29 176t86 148.5t144.5 103.5t203.5 39q117 0 204 -38t144.5 -102.5t86 -149.5t28.5 -177v-441q0 -63 -44 -106t-107 -43t-106.5 43t-43.5 106v402q0 96 -34 160.5t-128 64.5t-128 -64.5t-34 -160.5v-402q0 -63 -44 -106t-107 -43t-106.5 43t-43.5 106z M246 1249q0 33 14 68t41 61.5t62.5 44t78.5 17.5t76 -14.5t60.5 -31t53 -30.5t56.5 -14q18 0 28.5 14t21 30.5t24.5 31t39 14.5q29 0 55.5 -19.5t26.5 -54.5t-14.5 -69.5t-40 -61.5t-61.5 -43t-79 -16t-78 14t-63.5 32.5t-53 33t-51.5 14.5q-23 0 -34 -14.5t-20 -33 t-21.5 -32.5t-38.5 -14q-31 0 -56.5 19t-25.5 54z" />
<glyph unicode="&#xf2;" horiz-adv-x="1198" d="M51 506q0 113 43 211t118 172t174 116t212 42t212 -42t174 -116t119 -172.5t44 -210.5q0 -113 -44 -210t-119 -170t-174 -115t-212 -42t-212 42t-174 115t-118 170t-43 210zM348 506q0 -57 20.5 -105.5t55.5 -82t80 -53t94 -19.5t94 19.5t81 53t56.5 82t20.5 105.5 t-20.5 105t-56.5 82t-81 53.5t-94 19.5t-94 -19.5t-80 -53.5t-55.5 -82t-20.5 -105zM414 1407q0 43 31.5 67.5t62.5 24.5q29 0 51 -16l180 -131q43 -31 43 -78q0 -37 -23.5 -66.5t-72.5 -29.5q-31 0 -53 16l-174 127q-45 33 -45 86z" />
<glyph unicode="&#xf3;" horiz-adv-x="1198" d="M51 506q0 113 43 211t118 172t174 116t212 42t212 -42t174 -116t119 -172.5t44 -210.5q0 -113 -44 -210t-119 -170t-174 -115t-212 -42t-212 42t-174 115t-118 170t-43 210zM348 506q0 -57 20.5 -105.5t55.5 -82t80 -53t94 -19.5t94 19.5t81 53t56.5 82t20.5 105.5 t-20.5 105t-56.5 82t-81 53.5t-94 19.5t-94 -19.5t-80 -53.5t-55.5 -82t-20.5 -105zM416 1270q0 51 41 82l172 125q25 18 61 18q39 0 64.5 -26.5t25.5 -59.5q0 -59 -45 -90l-168 -119q-12 -10 -28.5 -16t-30.5 -6q-41 0 -66.5 25.5t-25.5 66.5z" />
<glyph unicode="&#xf4;" horiz-adv-x="1198" d="M51 506q0 113 43 211t118 172t174 116t212 42t212 -42t174 -116t119 -172.5t44 -210.5q0 -113 -44 -210t-119 -170t-174 -115t-212 -42t-212 42t-174 115t-118 170t-43 210zM348 506q0 -57 20.5 -105.5t55.5 -82t80 -53t94 -19.5t94 19.5t81 53t56.5 82t20.5 105.5 t-20.5 105t-56.5 82t-81 53.5t-94 19.5t-94 -19.5t-80 -53.5t-55.5 -82t-20.5 -105zM352 1278q0 12 7.5 30.5t23.5 34.5l137 130q12 12 32.5 22t43.5 10q20 0 40.5 -6t41.5 -26l135 -127q16 -16 24.5 -35t8.5 -33q0 -39 -24.5 -69.5t-65.5 -30.5q-20 0 -41 10t-35 24l-80 80 l-72 -71q-18 -18 -39.5 -30.5t-42.5 -12.5q-45 0 -69.5 30.5t-24.5 69.5z" />
<glyph unicode="&#xf5;" horiz-adv-x="1198" d="M51 506q0 113 43 211t118 172t174 116t212 42t212 -42t174 -116t119 -172.5t44 -210.5q0 -113 -44 -210t-119 -170t-174 -115t-212 -42t-212 42t-174 115t-118 170t-43 210zM281 1249q0 33 14 68t40.5 61.5t62.5 44t79 17.5t76 -14.5t60.5 -31t53 -30.5t56.5 -14 q18 0 28.5 14t20.5 30.5t24.5 31t39.5 14.5q29 0 55.5 -19.5t26.5 -54.5t-14.5 -69.5t-40 -61.5t-61.5 -43t-79 -16t-78 14t-63.5 32.5t-53 33t-51.5 14.5q-23 0 -34 -14.5t-20 -33t-21.5 -32.5t-39.5 -14q-31 0 -56 19t-25 54zM348 506q0 -57 20.5 -105.5t55.5 -82t80 -53 t94 -19.5t94 19.5t81 53t56.5 82t20.5 105.5t-20.5 105t-56.5 82t-81 53.5t-94 19.5t-94 -19.5t-80 -53.5t-55.5 -82t-20.5 -105z" />
<glyph unicode="&#xf6;" horiz-adv-x="1198" d="M51 506q0 113 43 211t118 172t174 116t212 42t212 -42t174 -116t119 -172.5t44 -210.5q0 -113 -44 -210t-119 -170t-174 -115t-212 -42t-212 42t-174 115t-118 170t-43 210zM319 1300q0 47 34 84t87 37q47 0 83 -36.5t36 -84.5q0 -53 -36 -86.5t-83 -33.5q-53 0 -87 33.5 t-34 86.5zM348 506q0 -57 20.5 -105.5t55.5 -82t80 -53t94 -19.5t94 19.5t81 53t56.5 82t20.5 105.5t-20.5 105t-56.5 82t-81 53.5t-94 19.5t-94 -19.5t-80 -53.5t-55.5 -82t-20.5 -105zM635 1300q0 47 35 84t84 37t86 -36.5t37 -84.5q0 -53 -37 -86.5t-86 -33.5t-84 33.5 t-35 86.5z" />
<glyph unicode="&#xf7;" horiz-adv-x="909" d="M72 500q0 47 33.5 80.5t80.5 33.5h559q47 0 80 -33.5t33 -80.5t-35 -81t-82 -34h-555q-47 0 -80.5 34t-33.5 81zM324 139q0 59 41 99.5t100 40.5t100 -40t41 -100q0 -59 -41 -100t-100 -41t-100 41t-41 100zM324 852q0 59 41 99t100 40t100 -40t41 -99t-41 -100t-100 -41 t-100 41t-41 100z" />
<glyph unicode="&#xf8;" horiz-adv-x="1198" d="M51 506q0 113 43 211t118 172t174 116t212 42q82 0 156.5 -24t140.5 -65l12 11q41 35 93.5 39t93.5 -33q41 -39 44 -94.5t-38 -94.5l-23 -20q33 -59 51.5 -123.5t18.5 -136.5q0 -113 -44 -210t-119 -170t-174 -115t-212 -42q-164 0 -297 86l-12 -12q-39 -41 -94.5 -43 t-96.5 39q-20 18 -30.5 41.5t-11.5 49.5t8.5 50.5t27.5 44.5l25 23q-66 115 -66 258zM348 506q0 -57 20.5 -105.5t55.5 -82t80 -53t94 -19.5t94 19.5t81 53t56.5 82t20.5 105.5t-20.5 105t-56.5 82t-81 53.5t-94 19.5t-94 -19.5t-80 -53.5t-55.5 -82t-20.5 -105z" />
<glyph unicode="&#xf9;" horiz-adv-x="1130" d="M102 442v441q0 63 44 106t108 43q63 0 106 -43t43 -106v-402q0 -96 34 -160.5t128 -64.5t128 64.5t34 160.5v402q0 63 44 106t108 43q63 0 106 -43t43 -106v-441q0 -92 -28.5 -176t-86 -148.5t-144.5 -103.5t-204 -39t-204 38t-144 102.5t-86 149.5t-29 177zM381 1407 q0 43 31.5 67.5t62.5 24.5q29 0 51 -16l181 -131q43 -31 43 -78q0 -37 -24 -66.5t-73 -29.5q-31 0 -53 16l-174 127q-45 33 -45 86z" />
<glyph unicode="&#xfa;" horiz-adv-x="1130" d="M102 442v441q0 63 44 106t108 43q63 0 106 -43t43 -106v-402q0 -96 34 -160.5t128 -64.5t128 64.5t34 160.5v402q0 63 44 106t108 43q63 0 106 -43t43 -106v-441q0 -92 -28.5 -176t-86 -148.5t-144.5 -103.5t-204 -39t-204 38t-144 102.5t-86 149.5t-29 177zM383 1270 q0 51 41 82l172 125q25 18 61 18q39 0 65 -26.5t26 -59.5q0 -59 -46 -90l-167 -119q-12 -10 -29 -16t-31 -6q-41 0 -66.5 25.5t-25.5 66.5z" />
<glyph unicode="&#xfb;" horiz-adv-x="1130" d="M102 442v441q0 63 44 106t108 43q63 0 106 -43t43 -106v-402q0 -96 34 -160.5t128 -64.5t128 64.5t34 160.5v402q0 63 44 106t108 43q63 0 106 -43t43 -106v-441q0 -92 -28.5 -176t-86 -148.5t-144.5 -103.5t-204 -39t-204 38t-144 102.5t-86 149.5t-29 177zM317 1278 q0 12 7.5 30.5t23.5 34.5l137 130q12 12 33 22t43 10q20 0 41 -6t41 -26l135 -127q16 -16 24.5 -35t8.5 -33q0 -39 -24.5 -69.5t-65.5 -30.5q-20 0 -41 10t-35 24l-80 80l-71 -71q-18 -18 -40 -30.5t-42 -12.5q-45 0 -70 30.5t-25 69.5z" />
<glyph unicode="&#xfc;" horiz-adv-x="1130" d="M102 442v441q0 63 44 106t108 43q63 0 106 -43t43 -106v-402q0 -96 34 -160.5t128 -64.5t128 64.5t34 160.5v402q0 63 44 106t108 43q63 0 106 -43t43 -106v-441q0 -92 -28.5 -176t-86 -148.5t-144.5 -103.5t-204 -39t-204 38t-144 102.5t-86 149.5t-29 177zM287 1300 q0 47 33.5 84t87.5 37q47 0 82.5 -36.5t35.5 -84.5q0 -53 -35.5 -86.5t-82.5 -33.5q-53 0 -87 33.5t-34 86.5zM602 1300q0 47 35 84t84 37t86 -36.5t37 -84.5q0 -53 -37 -86.5t-86 -33.5t-84 33.5t-35 86.5z" />
<glyph unicode="&#xfd;" horiz-adv-x="968" d="M20 883q0 57 41 103t111 46q45 0 81 -26.5t52 -73.5l176 -494l178 494q16 47 53.5 73.5t82.5 26.5q68 0 110.5 -46t42.5 -103q0 -29 -8 -52l-465 -1216q-16 -45 -56 -70.5t-85 -25.5q-66 0 -108 45t-42 102q0 33 11 55l129 336l-295 774q-8 23 -9 52zM301 1270 q0 51 41 82l172 125q25 18 61 18q39 0 65 -26.5t26 -59.5q0 -59 -45 -90l-168 -119q-12 -10 -28.5 -16t-31.5 -6q-41 0 -66.5 25.5t-25.5 66.5z" />
<glyph unicode="&#xff;" horiz-adv-x="968" d="M20 883q0 57 41 103t111 46q45 0 81 -26.5t52 -73.5l176 -494l178 494q16 47 53.5 73.5t82.5 26.5q68 0 110.5 -46t42.5 -103q0 -29 -8 -52l-465 -1216q-16 -45 -56 -70.5t-85 -25.5q-66 0 -108 45t-42 102q0 33 11 55l129 336l-295 774q-8 23 -9 52zM205 1300 q0 47 33.5 84t87.5 37q47 0 82.5 -36.5t35.5 -84.5q0 -53 -35.5 -86.5t-82.5 -33.5q-53 0 -87 33.5t-34 86.5zM520 1300q0 47 35 84t84 37t86 -36.5t37 -84.5q0 -53 -37 -86.5t-86 -33.5t-84 33.5t-35 86.5z" />
<glyph unicode="&#x152;" horiz-adv-x="1712" d="M123 678q0 162 49 287t142.5 210t226.5 129t301 44h657q63 0 107.5 -44t44.5 -108q0 -63 -44 -107.5t-108 -44.5h-254v-208h217q63 0 107.5 -44t44.5 -106q0 -63 -44 -107t-108 -44h-217v-232h254q63 0 107.5 -44t44.5 -107t-44 -107.5t-108 -44.5h-684q-193 0 -325 54.5 t-213.5 146.5t-117.5 215t-36 262zM467 672q0 -72 15.5 -138.5t52 -117.5t100 -82t160.5 -31h106v741h-106q-82 0 -143.5 -27.5t-102.5 -76.5t-61.5 -117.5t-20.5 -150.5z" />
<glyph unicode="&#x153;" horiz-adv-x="1951" d="M51 506q0 113 43 211t118 172t174 116t212 42q119 0 219.5 -47.5t171.5 -129.5q66 80 162 128.5t225 48.5q135 0 234.5 -46.5t165 -121t98.5 -170t33 -195.5q0 -47 -33 -73.5t-80 -26.5h-647q23 -84 92.5 -141.5t179.5 -57.5q86 0 138.5 17.5t87.5 41.5q27 20 52 32.5 t54 12.5q53 0 82 -33.5t29 -86.5q0 -39 -34 -80t-93.5 -74t-139 -54.5t-172.5 -21.5q-135 0 -243.5 48.5t-182.5 134.5q-72 -86 -174 -134.5t-225 -48.5q-113 0 -212 42t-174 115t-118 170t-43 210zM348 506q0 -57 20.5 -105.5t55.5 -82t80 -53t94 -19.5t94 19.5t81 53 t56.5 82t20.5 105.5t-20.5 105t-56.5 82t-81 53.5t-94 19.5t-94 -19.5t-80 -53.5t-55.5 -82t-20.5 -105zM1157 623h447q-6 27 -21.5 56.5t-41 55t-65.5 42t-98 16.5q-49 0 -88 -16.5t-65.5 -42t-44 -55.5t-23.5 -56z" />
<glyph unicode="&#x178;" horiz-adv-x="1067" d="M20 1194q0 33 12.5 62.5t34 52t51 37t66.5 14.5q49 0 81 -19.5t54 -54.5l213 -325l213 325q23 35 56 54.5t82 19.5q35 0 65.5 -14.5t52 -37t34 -52t12.5 -60.5q0 -47 -29 -92l-311 -457v-485q0 -72 -50.5 -122t-121.5 -50q-37 0 -68 13t-54.5 36.5t-37 55.5t-13.5 67v481 l-315 461q-27 39 -27 90zM254 1552q0 47 34 84t87 37q47 0 83 -37t36 -84q0 -53 -36 -86.5t-83 -33.5q-53 0 -87 33.5t-34 86.5zM569 1552q0 47 35 84t84 37t86 -37t37 -84q0 -53 -37 -86.5t-86 -33.5t-84 33.5t-35 86.5z" />
<glyph unicode="&#x2c6;" horiz-adv-x="460" d="M-20 1278q0 12 7 30.5t23 34.5l137 130q12 12 33 22t43 10q20 0 41 -6t41 -26l135 -127q16 -16 24.5 -35t8.5 -33q0 -39 -24.5 -69.5t-65.5 -30.5q-20 0 -40.5 10t-35.5 24l-80 80l-71 -71q-18 -18 -40 -30.5t-42 -12.5q-45 0 -69.5 30.5t-24.5 69.5z" />
<glyph unicode="&#x2dc;" horiz-adv-x="608" d="M-18 1249q0 33 14 68t40.5 61.5t62.5 44t79 17.5t76 -14.5t60.5 -31t53 -30.5t56.5 -14q18 0 28.5 14t20.5 30.5t24.5 31t39.5 14.5q29 0 55 -19.5t26 -54.5t-14 -69.5t-39.5 -61.5t-61.5 -43t-79 -16t-78 14t-63.5 32.5t-53 33t-51.5 14.5q-23 0 -34 -14.5t-20 -33 t-21.5 -32.5t-39.5 -14q-31 0 -56 19t-25 54z" />
<glyph unicode="&#x2000;" horiz-adv-x="879" />
<glyph unicode="&#x2001;" horiz-adv-x="1759" />
<glyph unicode="&#x2002;" horiz-adv-x="879" />
<glyph unicode="&#x2003;" horiz-adv-x="1759" />
<glyph unicode="&#x2004;" horiz-adv-x="586" />
<glyph unicode="&#x2005;" horiz-adv-x="439" />
<glyph unicode="&#x2006;" horiz-adv-x="293" />
<glyph unicode="&#x2007;" horiz-adv-x="293" />
<glyph unicode="&#x2008;" horiz-adv-x="219" />
<glyph unicode="&#x2009;" horiz-adv-x="351" />
<glyph unicode="&#x200a;" horiz-adv-x="97" />
<glyph unicode="&#x2010;" horiz-adv-x="686" d="M61 500q0 47 34 80.5t81 33.5h336q47 0 80 -33.5t33 -80.5t-34 -81t-81 -34h-334q-47 0 -81 34t-34 81z" />
<glyph unicode="&#x2011;" horiz-adv-x="686" d="M61 500q0 47 34 80.5t81 33.5h336q47 0 80 -33.5t33 -80.5t-34 -81t-81 -34h-334q-47 0 -81 34t-34 81z" />
<glyph unicode="&#x2012;" horiz-adv-x="686" d="M61 500q0 47 34 80.5t81 33.5h336q47 0 80 -33.5t33 -80.5t-34 -81t-81 -34h-334q-47 0 -81 34t-34 81z" />
<glyph unicode="&#x2013;" horiz-adv-x="1183" d="M0 500q0 47 34 80.5t81 33.5h956q47 0 80 -33.5t33 -80.5t-34 -81t-81 -34h-954q-47 0 -81 34t-34 81z" />
<glyph unicode="&#x2014;" horiz-adv-x="1433" d="M0 500q0 47 34 80.5t81 33.5h1206q47 0 80 -33.5t33 -80.5t-34 -81t-81 -34h-1204q-47 0 -81 34t-34 81z" />
<glyph unicode="&#x2018;" horiz-adv-x="430" d="M72 1137q0 51 23.5 93t58 69.5t75.5 43t78 15.5q33 0 33 -31q0 -16 -15.5 -27.5t-31.5 -23.5q-12 -8 -22.5 -15.5t-10.5 -17.5t15.5 -19.5t34 -23.5t33.5 -37.5t15 -66.5q0 -59 -41 -100.5t-98 -41.5q-66 0 -106.5 46.5t-40.5 136.5z" />
<glyph unicode="&#x2019;" horiz-adv-x="430" d="M72 1219q0 59 41 100t98 41q66 0 106.5 -46t40.5 -136q0 -53 -23.5 -94.5t-58 -69t-75.5 -43t-78 -15.5q-33 0 -33 31q0 16 15.5 27.5t31.5 23.5q12 8 22.5 15.5t10.5 17.5t-15.5 19.5t-34 23.5t-33.5 38t-15 67z" />
<glyph unicode="&#x201a;" horiz-adv-x="430" d="M70 147q0 59 41 100.5t98 41.5q66 0 106.5 -46t40.5 -137q0 -53 -23.5 -94t-58 -68.5t-75.5 -43t-78 -15.5q-33 0 -33 31q0 16 15.5 27.5t31.5 23.5q12 8 22.5 15.5t10.5 17.5t-15.5 19.5t-34 23.5t-33.5 37.5t-15 66.5z" />
<glyph unicode="&#x201c;" horiz-adv-x="786" d="M72 1137q0 51 23.5 93t58 69.5t75.5 43t78 15.5q33 0 33 -31q0 -16 -15.5 -27.5t-31.5 -23.5q-12 -8 -22.5 -15.5t-10.5 -17.5t15.5 -19.5t34 -23.5t33.5 -37.5t15 -66.5q0 -59 -41 -100.5t-98 -41.5q-66 0 -106.5 46.5t-40.5 136.5zM428 1137q0 51 23.5 93t58.5 69.5 t76 43t78 15.5q33 0 32 -31q0 -16 -15 -27.5t-32 -23.5q-12 -8 -22.5 -15.5t-10.5 -17.5t15.5 -19.5t34 -23.5t34 -37.5t15.5 -66.5q0 -59 -41 -100.5t-99 -41.5q-66 0 -106.5 46.5t-40.5 136.5z" />
<glyph unicode="&#x201d;" horiz-adv-x="786" d="M72 1217q0 59 41 100t98 41q66 0 106.5 -46t40.5 -136q0 -53 -23.5 -94.5t-58 -69t-75.5 -43t-78 -15.5q-33 0 -33 31q0 16 15.5 27.5t31.5 23.5q12 8 22.5 15.5t10.5 17.5t-15.5 19.5t-34 23.5t-33.5 38t-15 67zM428 1217q0 59 41 100t98 41q66 0 107 -46t41 -136 q0 -53 -23.5 -94.5t-58.5 -69t-76 -43t-78 -15.5q-33 0 -33 31q0 16 15.5 27.5t32.5 23.5q12 8 22 15.5t10 17.5t-15 19.5t-33.5 23.5t-34 38t-15.5 67z" />
<glyph unicode="&#x201e;" horiz-adv-x="796" d="M72 147q0 59 41 100.5t98 41.5q66 0 106.5 -46t40.5 -137q0 -53 -23.5 -94t-58 -68.5t-75.5 -43t-78 -15.5q-33 0 -33 31q0 16 15.5 27.5t31.5 23.5q12 8 22.5 15.5t10.5 17.5t-15.5 19.5t-34 23.5t-33.5 37.5t-15 66.5zM428 147q0 59 41 100.5t98 41.5q66 0 107 -46 t41 -137q0 -53 -23.5 -94t-58.5 -68.5t-76 -43t-78 -15.5q-33 0 -33 31q0 16 15.5 27.5t32.5 23.5q12 8 22 15.5t10 17.5t-15 19.5t-33.5 23.5t-34 37.5t-15.5 66.5z" />
<glyph unicode="&#x2022;" horiz-adv-x="708" d="M72 522q0 57 22.5 109.5t60.5 90.5t89 60.5t110 22.5q57 0 109.5 -22.5t90.5 -60.5t60.5 -90t22.5 -110q0 -59 -22.5 -110.5t-60.5 -89t-90 -60t-110 -22.5q-59 0 -110 22.5t-89 60t-60.5 89t-22.5 110.5z" />
<glyph unicode="&#x2026;" horiz-adv-x="1468" d="M82 147q0 68 47 115t115 47t116 -47t48 -115t-48.5 -114.5t-115.5 -46.5q-68 0 -115 46.5t-47 114.5zM571 147q0 68 47.5 115t114.5 47q68 0 116 -47t48 -115t-48 -114.5t-116 -46.5t-115 46.5t-47 114.5zM1061 147q0 68 47 115t115 47t115.5 -47t47.5 -115t-48 -114.5 t-115 -46.5q-68 0 -115 46.5t-47 114.5z" />
<glyph unicode="&#x202f;" horiz-adv-x="351" />
<glyph unicode="&#x2039;" horiz-adv-x="468" d="M61 344q0 18 7.5 40t25.5 42l146 156q33 33 67 32q39 0 70 -24.5t31 -65.5q0 -20 -10.5 -41.5t-24.5 -33.5l-99 -101l95 -94q39 -39 39 -78q0 -45 -31 -69.5t-70 -24.5q-12 0 -30.5 7t-34.5 24l-148 155q-12 12 -22.5 33t-10.5 43z" />
<glyph unicode="&#x203a;" horiz-adv-x="468" d="M61 176q0 39 39 78l95 94l-99 101q-14 12 -24.5 33.5t-10.5 41.5q0 41 31 65.5t70 24.5q35 0 67 -32l146 -156q18 -20 25.5 -42t7.5 -40q0 -23 -10.5 -43t-22.5 -33l-148 -155q-16 -16 -34.5 -23.5t-30.5 -7.5q-39 0 -70 24.5t-31 69.5z" />
<glyph unicode="&#x205f;" horiz-adv-x="439" />
<glyph unicode="&#x20ac;" horiz-adv-x="1187" d="M20 524q0 33 19.5 56.5t48.5 29.5q-2 10 -3 23.5t-1 25.5v26.5t2 27.5q-2 0 -3 1t-3 1q-27 10 -43.5 32.5t-16.5 51.5q0 35 26 60.5t60 25.5h9q33 115 99.5 205t154.5 153.5t193.5 96t219.5 32.5q141 0 196.5 -38t55.5 -124q0 -57 -41 -102t-106 -45q-23 0 -42.5 4 t-60.5 4q-113 0 -191.5 -53t-123.5 -133h313q35 0 60.5 -25.5t25.5 -60.5q0 -37 -26.5 -62.5t-63.5 -25.5h-362q-2 -10 -2 -18.5v-16.5q0 -16 1 -31.5t3 -32.5h291q35 0 60.5 -25.5t25.5 -62.5q0 -35 -27 -60.5t-63 -25.5h-220q47 -72 124 -115.5t179 -43.5q45 0 75 7 t52.5 15t43 15.5t49.5 7.5q57 0 103 -43t46 -111q0 -55 -33.5 -93t-87 -59.5t-118 -31t-125.5 -9.5q-125 0 -232.5 36t-193.5 98.5t-148.5 146.5t-95.5 180h-17q-35 0 -60.5 25.5t-25.5 60.5z" />
<glyph unicode="&#x2122;" d="M41 1266q0 35 25.5 60.5t60.5 25.5h336q35 0 60.5 -26t25.5 -60q0 -37 -25.5 -62.5t-60.5 -25.5h-70v-504q0 -41 -28.5 -70t-69.5 -29t-69.5 29t-28.5 70v504h-70q-35 0 -60.5 25.5t-25.5 62.5zM631 674v586q0 39 28.5 68.5t69.5 29.5q29 0 52.5 -15.5t35.5 -42.5 l221 -432l224 432q27 57 88 58q39 0 68.5 -29t29.5 -69v-586q0 -41 -26.5 -70t-67.5 -29t-69 29t-28 70v213l-127 -250q-14 -27 -36.5 -45.5t-55.5 -18.5q-31 0 -54 17.5t-36 46.5l-127 250v-213q0 -41 -27.5 -70t-68.5 -29t-67.5 29t-26.5 70z" />
<glyph unicode="&#x25fc;" horiz-adv-x="1034" d="M0 0v1034h1034v-1034h-1034z" />
<glyph unicode="&#xfb01;" horiz-adv-x="1183" d="M20 879q0 53 39 92t93 39v67q0 88 20.5 168t69.5 139.5t128 95.5t195 36q57 0 97 -34t40 -100q0 -61 -34.5 -98t-85.5 -43q-63 -8 -96 -46t-33 -89v-96h479q27 0 53.5 -11.5t48 -32t34.5 -48t13 -60.5v-717q0 -63 -44 -107t-107 -44t-106.5 44t-43.5 107v607h-327v-607 q0 -63 -44 -107t-108 -44q-63 0 -106 44t-43 107v607q-53 0 -92.5 38.5t-39.5 92.5zM780 1288q0 63 43 107.5t107 44.5q63 0 107 -44t44 -108q0 -63 -44 -106t-107 -43t-106.5 43t-43.5 106z" />
<glyph unicode="&#xfb02;" horiz-adv-x="1265" d="M20 879q0 53 39 92t93 39v67q0 88 20.5 168t69.5 139.5t128 95.5t195 36q57 0 97 -34t40 -100q0 -61 -34.5 -98t-85.5 -43q-63 -8 -96 -46t-33 -89v-96h94q53 0 92 -39t39 -92t-39 -92t-92 -39h-94v-607q0 -63 -44 -107t-108 -44q-63 0 -106 44t-43 107v607 q-53 0 -92.5 38.5t-39.5 92.5zM780 297v1067q0 63 43 107.5t107 44.5q63 0 107 -44.5t44 -107.5v-999q0 -35 20.5 -53.5t55.5 -28.5q47 -14 78 -49t31 -101q0 -39 -14.5 -66.5t-38 -44t-52 -24.5t-55.5 -8q-74 0 -133.5 24.5t-102.5 65.5t-66.5 97t-23.5 120z" />
</font>
</defs>
</svg>
